<?xml version="1.0" encoding="UTF-8"?>
<svg width="132px" height="124px" viewBox="0 0 132 124" version="1.1" xmlns="http://www.w3.org/2000/svg" xmlns:xlink="http://www.w3.org/1999/xlink">
    <title>Group 34</title>
    <defs>
        <linearGradient x1="50%" y1="50%" x2="50%" y2="107.52663%" id="linearGradient-1">
            <stop stop-color="#FF931E" offset="0%"></stop>
            <stop stop-color="#FF6F17" offset="100%"></stop>
        </linearGradient>
        <path d="M30.7974265,0 C26.6977941,0 22.8529412,3.14496579 21,4.92485051 C19.1470588,3.14496579 15.3022059,0 11.2025735,0 C4.19227941,0 0,3.98965684 0,10.6717664 C0,16.1471745 5.15735294,20.7250983 5.34264706,20.8834779 L19.7801471,34.5192049 C20.4595588,35.160265 21.5404412,35.160265 22.2198529,34.5192049 L36.6341912,20.9287292 C36.8426471,20.7250983 42,16.1396326 42,10.6717664 C42,3.98965684 37.8077206,0 30.7974265,0 Z" id="path-2"></path>
    </defs>
    <g id="Page-1" stroke="none" stroke-width="1" fill="none" fill-rule="evenodd">
        <g id="prelaunch-site" transform="translate(-1253.000000, -888.000000)">
            <g id="Group-13" transform="translate(76.000000, 649.000000)">
                <g id="Group-34" transform="translate(1177.620238, 239.471418)">
                    <g id="Group-10" transform="translate(65.379762, 61.528582) rotate(12.000000) translate(-65.379762, -61.528582) translate(9.379762, 10.528582)">
                        <g id="Group-2-Copy-7" fill="url(#linearGradient-1)" transform="translate(0.000000, -0.000000)">
                            <path d="M46.6170078,2.97921585 C52.2111903,-0.993071949 59.7875732,-0.993071949 65.3829922,2.97921585 L65.3829922,2.97921585 L105.418988,33.8233599 C111.013171,37.7968562 113.355209,44.8374855 111.217203,51.2654134 L111.217203,51.2654134 L96.5058878,89.475269 C94.0228819,96.9437018 86.9015519,102 78.8664065,102 L78.8664065,102 L76.696,102 L60.3035215,89.4903605 C57.8942084,87.796085 54.6319187,87.796085 52.2231381,89.4903605 L35.83,102 L33.1335935,102 C25.2239972,102 18.1998827,97.1004767 15.6138861,89.823575 L15.4941122,89.475269 L0.782797179,51.2654134 C-1.35520935,44.8374855 0.986829034,37.7968562 6.58101154,33.8233599 L6.58101154,33.8233599 Z" id="Combined-Shape"></path>
                        </g>
                        <g id="Solid/heart-Copy-2" transform="translate(34.896044, 33.010926)">
                            <mask id="mask-3" fill="white">
                                <use xlink:href="#path-2"></use>
                            </mask>
                            <use id="Mask" fill="#FFFFFF" xlink:href="#path-2"></use>
                        </g>
                    </g>
                </g>
            </g>
        </g>
    </g>
</svg>