<?xml version="1.0" encoding="UTF-8"?>
<svg width="54px" height="49px" viewBox="0 0 54 49" version="1.1" xmlns="http://www.w3.org/2000/svg" xmlns:xlink="http://www.w3.org/1999/xlink">
    <title>arrow-33</title>
    <g id="Page-1" stroke="none" stroke-width="1" fill="none" fill-rule="evenodd">
        <g id="prelaunch-site" transform="translate(-449.000000, -56.000000)" fill="#FF931E" fill-rule="nonzero">
            <g id="arrow-33" transform="translate(476.350708, 80.543830) scale(-1, -1) rotate(-241.000000) translate(-476.350708, -80.543830) translate(461.543338, 58.390026)">
                <path d="M3.80800378,0.00505556008 C3.95863554,-0.0157190093 4.11101393,0.0281117641 4.22797661,0.125858354 C4.3449393,0.223604943 4.41573522,0.366282595 4.42309853,0.519094832 C4.39610357,0.739434819 4.34601479,0.956282069 4.27366873,1.166015 C4.11033849,1.58214203 3.92615757,1.98777847 3.73155132,2.38991803 C2.40405868,5.14195141 1.79938926,8.09680301 1.39627631,11.0901201 C1.12960445,13.3118071 1.2709566,15.5638931 1.81328971,17.7341651 C2.0808733,18.8741434 2.40058357,20.0071279 2.77242052,21.1191312 C3.41531616,23.0459043 4.50997632,24.7523748 5.66371338,26.3644299 C7.23510149,28.4663354 9.07810494,30.3479239 11.1439644,31.9594152 C13.324609,33.6964624 15.6659987,35.2187591 18.135889,36.5053407 C20.2866024,37.6737859 22.5121017,38.6971252 24.7976779,39.5685952 C25.1556781,39.7135064 25.5039254,39.8817115 25.8402114,40.0721438 C26.0066421,40.2287123 26.047961,40.4781778 25.9409897,40.6805985 C25.8479811,40.811107 25.7185712,40.9109018 25.5691527,40.9673415 C25.4098676,41.0108862 25.2419222,41.0108862 25.0826371,40.9673415 C24.7597437,40.8839704 24.4427924,40.7788268 24.1339316,40.6526236 C21.4198695,39.5091484 18.7058073,38.3586796 16.1655007,36.8515304 C14.9700623,36.1521573 13.7711488,35.4318029 12.6208868,34.648505 C11.6106361,33.9567301 10.6363241,33.2132516 9.70179308,32.4210015 C7.71531061,30.7913132 5.94580798,28.9108329 4.43699898,26.8260162 C2.56419091,24.1771753 1.26215364,21.1637429 0.614376201,17.9789457 C0.337405422,16.4965311 0.141347049,14.9999615 0.0270823377,13.4959638 C-0.0841212341,12.3105263 0.173037026,11.1530637 0.329417048,9.999098 C0.739117214,6.83844812 1.66187582,3.76695807 3.06085478,0.907246935 C3.17640354,0.660749721 3.31609958,0.426465491 3.47786817,0.207873776 C3.57179901,0.116721617 3.68450792,0.0474791006 3.80800378,0.00505556008 Z" id="Path"></path>
                <path d="M24.0759491,44.3076084 C23.3092088,44.2425539 22.5459067,44.1740756 21.7791664,44.1124451 C21.0674388,44.0542385 20.3557112,44.0097276 19.6439836,43.951521 C16.7730051,43.7152708 13.9879841,43.1571724 11.4402056,41.7362469 C11.2016016,41.600255 10.9719188,41.4492984 10.7525461,41.2842899 C10.6042714,41.1179106 10.5725631,40.8784351 10.6724636,40.6794699 C10.772364,40.4805046 10.983774,40.3620799 11.2064014,40.3803759 C11.4220396,40.4163309 11.6300841,40.4880896 11.8218566,40.5926588 C14.2699245,41.9622254 16.94492,42.5237478 19.7058729,42.7531502 C22.1126812,42.9517374 24.5194895,43.1674441 26.9434893,42.8524438 C27.1600012,42.8256654 27.3724416,42.7727774 27.576136,42.6949436 C27.6616011,42.6378247 27.7110896,42.5405586 27.7067913,42.4381499 C27.5866314,42.200654 27.4499109,41.9718327 27.2976339,41.7533665 C25.0661788,38.3739608 22.6731237,35.0972725 20.7648686,31.50216 C20.3487621,30.792717 20.0601993,30.0163926 19.9121708,29.2081358 C19.8899877,29.0479698 19.8899877,28.8855296 19.9121708,28.7253636 C19.939819,28.4979822 20.1261888,28.3224628 20.3557112,28.3076084 C20.5145457,28.3059509 20.668559,28.3619429 20.7889367,28.4651459 C20.9127244,28.5725948 21.0013458,28.7145116 21.0433707,28.872592 C21.42846,30.4441697 22.3052259,31.7794972 23.1063492,33.1422161 C24.2203576,35.0287942 25.4272001,36.8537418 26.6959319,38.6478741 C27.517685,39.8085818 28.2534806,41.0446158 29.1027401,42.1676604 C29.2886358,42.4368384 29.4497438,42.722182 29.5841018,43.0202157 C29.6794023,43.2931204 29.5454783,43.5928143 29.2780933,43.704999 C29.1315643,43.7797037 28.9753596,43.8338586 28.8139232,43.8659231 C27.2494978,43.9823363 25.6953873,44.3076084 24.0759491,44.3076084 Z" id="Path"></path>
            </g>
        </g>
    </g>
</svg>