<?xml version="1.0" encoding="UTF-8"?>
<svg width="26px" height="25px" viewBox="0 0 26 25" version="1.1" xmlns="http://www.w3.org/2000/svg" xmlns:xlink="http://www.w3.org/1999/xlink">
    <title>Mask</title>
    <defs>
        <path d="M12.5106022,0 C5.60116812,0 0,5.59642137 0,12.5 C0,19.4035786 5.60116812,25 12.5106022,25 C19.4200363,25 25.0212044,19.4035786 25.0212044,12.5 C25.0212044,5.59642137 19.4200363,0 12.5106022,0 Z M12.5106022,2.41935484 C18.0864969,2.41935484 22.5997975,6.92797379 22.5997975,12.5 C22.5997975,18.0711694 18.0873545,22.5806452 12.5106022,22.5806452 C6.93470752,22.5806452 2.42140688,18.0720262 2.42140688,12.5 C2.42140688,6.92883065 6.93384993,2.41935484 12.5106022,2.41935484 L12.5106022,2.41935484 Z M19.5833299,8.98523185 L18.4464794,7.84017137 C18.211048,7.60302419 17.8277595,7.60146169 17.5904112,7.83674395 L10.4597715,14.9040827 L7.44350564,11.8659274 C7.20807426,11.6287802 6.82478573,11.6272177 6.58743741,11.8624496 L5.44135527,12.9983367 C5.20400695,13.2335685 5.20244312,13.6165323 5.43792494,13.8537298 L10.0174611,18.4664315 C10.2528925,18.7035786 10.6361811,18.7051411 10.8735294,18.4698589 L19.57995,9.840625 C19.8172479,9.60534274 19.8187613,9.22237903 19.5833299,8.98523185 L19.5833299,8.98523185 Z" id="path-1"></path>
    </defs>
    <g id="Page-1" stroke="none" stroke-width="1" fill="none" fill-rule="evenodd">
        <g id="prelaunch-site" transform="translate(-547.000000, -348.000000)">
            <g id="Mask-2" transform="translate(547.000000, 348.000000)">
                <mask id="mask-2" fill="white">
                    <use xlink:href="#path-1"></use>
                </mask>
                <use id="Mask" fill="#000000" fill-rule="nonzero" xlink:href="#path-1"></use>
            </g>
        </g>
    </g>
</svg>