<?xml version="1.0" encoding="UTF-8"?>
<svg width="130px" height="30px" viewBox="0 0 130 30" version="1.1" xmlns="http://www.w3.org/2000/svg" xmlns:xlink="http://www.w3.org/1999/xlink">
    <title>Group Copy 8</title>
    <g id="Page-1" stroke="none" stroke-width="1" fill="none" fill-rule="evenodd">
        <g id="prelaunch-site" transform="translate(-76.000000, -3052.000000)" fill="#8C8C8C">
            <g id="Group-Copy-6" transform="translate(76.000000, 3052.000000)">
                <g id="inmoling-copy-3" transform="translate(38.566667, 6.051590)" fill-rule="nonzero">
                    <path d="M2.16131687,4.24307501 C1.74046639,4.24307501 1.3659808,4.14257151 1.03786008,3.94156452 C0.709739369,3.74055752 0.45473251,3.47742108 0.272839506,3.15215521 C0.0909465021,2.82688934 0,2.48517744 0,2.12701952 C0,1.76886159 0.0909465021,1.42532236 0.272839506,1.09640181 C0.45473251,0.767481269 0.709739369,0.502517497 1.03786008,0.301510498 C1.3659808,0.100503499 1.74403292,0 2.17201646,0 C2.59286694,0 2.96735254,0.100503499 3.29547325,0.301510498 C3.62359396,0.502517497 3.87860082,0.767481269 4.06049383,1.09640181 C4.24238683,1.42532236 4.33333333,1.76886159 4.33333333,2.12701952 C4.33333333,2.49248679 4.24238683,2.83602602 4.06049383,3.15763722 C3.87860082,3.47924842 3.62359396,3.74055752 3.29547325,3.94156452 C2.96735254,4.14257151 2.58930041,4.24307501 2.16131687,4.24307501 Z M3.92674897,17.2902566 L0.310288066,17.2902566 L0.310288066,5.66839737 L3.92674897,5.66839737 L3.92674897,17.2902566 Z" id="Shape"></path>
                    <path d="M13.6312209,5.18707697 C14.5326188,5.18707697 15.3286114,5.39215241 16.0191985,5.80230329 C16.7097856,6.21245417 17.2458993,6.80530863 17.6275396,7.58086666 C18.0091799,8.35642468 18.2,9.27739984 18.2,10.3437921 L18.2,17.2902566 L14.5144455,17.2902566 L14.5144455,11.026134 C14.5144455,10.2729479 14.3345294,9.6856864 13.9746971,9.26434959 C13.6148649,8.84301277 13.1296365,8.63234437 12.5190121,8.63234437 C12.0973905,8.63234437 11.7066636,8.73488209 11.3468313,8.93995753 C10.9869991,9.14503297 10.7034949,9.41908833 10.4963187,9.76212361 C10.2891426,10.1051589 10.1855545,10.4668374 10.1855545,10.8471591 L10.1855545,17.2902566 L6.5,17.2902566 L6.5,5.4331675 L9.33504194,5.4331675 L9.8693383,6.853781 C10.3127679,6.36159995 10.8870457,5.96077068 11.5921715,5.6512932 C12.2972973,5.34181572 12.9769804,5.18707697 13.6312209,5.18707697 Z" id="Path"></path>
                    <path d="M34.7126844,5.18707697 C35.5774762,5.18707697 36.3305048,5.38175128 36.9717699,5.77109989 C37.6130351,6.1604485 38.1113897,6.74447141 38.4668338,7.52316863 C38.8222779,8.30186584 39,9.25484291 39,10.3820998 L39,17.2902566 L35.2843265,17.2902566 L35.2843265,10.8938152 C35.2843265,10.1744472 35.1340872,9.62565111 34.8336087,9.24742675 C34.5331301,8.86920239 34.1007342,8.68009021 33.5364208,8.68009021 C33.1773124,8.68009021 32.8530154,8.76908417 32.56353,8.94707211 C32.2740446,9.12506004 32.0413569,9.36608537 31.8654671,9.6701481 C31.6895772,9.97421082 31.5833104,10.300522 31.5466667,10.6490817 L31.5466667,17.2902566 L27.8309931,17.2902566 L27.8309931,10.8938152 C27.8309931,10.1744472 27.6807539,9.62565111 27.3802753,9.24742675 C27.0797968,8.86920239 26.6474009,8.68009021 26.0830875,8.68009021 C25.7019928,8.68009021 25.3575418,8.78206246 25.0497345,8.98600697 C24.7419272,9.18995148 24.503743,9.46064146 24.3351819,9.79807693 C24.1666208,10.1355124 24.0823402,10.4970504 24.0823402,10.8826909 L24.0823402,17.2902566 L20.3666667,17.2902566 L20.3666667,5.49855586 L23.2248771,5.49855586 L23.6646018,6.65547744 C24.1409702,6.18825911 24.690626,5.82672112 25.3135693,5.57086346 C25.9365126,5.3150058 26.5851065,5.18707697 27.259351,5.18707697 C28.0288692,5.18707697 28.7104425,5.34467046 29.3040708,5.65985743 C29.8976991,5.9750444 30.3813963,6.4367006 30.7551622,7.04482605 C31.2315306,6.46636526 31.8196624,6.01212522 32.5195575,5.68210592 C33.2194526,5.35208662 33.9504949,5.18707697 34.7126844,5.18707697 Z" id="Path"></path>
                    <path d="M46.5505507,17.722513 C45.3922319,17.722513 44.3359034,17.4540372 43.3815652,16.9170856 C42.4272271,16.380134 41.6750483,15.6508956 41.125029,14.7293706 C40.5750097,13.8078455 40.3,12.7992472 40.3,11.7035757 C40.3,10.5861358 40.5768309,9.5630253 41.1304928,8.63424414 C41.6841546,7.70546297 42.4399758,6.97078255 43.3979565,6.43020289 C44.3559372,5.88962322 45.4177295,5.61933339 46.5833333,5.61933339 C47.7489372,5.61933339 48.8107295,5.88962322 49.7687101,6.43020289 C50.7266908,6.97078255 51.4825121,7.70546297 52.0361739,8.63424414 C52.5898357,9.5630253 52.8666667,10.5861358 52.8666667,11.7035757 C52.8666667,12.8065033 52.5898357,13.8169156 52.0361739,14.7348126 C51.4825121,15.6527096 50.7230483,16.380134 49.7577826,16.9170856 C48.7925169,17.4540372 47.7234396,17.722513 46.5505507,17.722513 Z M46.5833333,14.2722361 C47.07143,14.2722361 47.5139952,14.1597665 47.911029,13.9348273 C48.3080628,13.7098881 48.6213188,13.3996897 48.8507971,13.0042321 C49.0802754,12.6087745 49.1950145,12.1679662 49.1950145,11.6818073 C49.1950145,11.1883924 49.0802754,10.742142 48.8507971,10.3430564 C48.6213188,9.94397071 48.3080628,9.63195828 47.911029,9.40701909 C47.5139952,9.1820799 47.07143,9.06961031 46.5833333,9.06961031 C46.0952367,9.06961031 45.6526715,9.1820799 45.2556377,9.40701909 C44.8586039,9.63195828 44.5453478,9.94397071 44.3158696,10.3430564 C44.0863913,10.742142 43.9716522,11.1883924 43.9716522,11.6818073 C43.9716522,12.1679662 44.0863913,12.6087745 44.3158696,13.0042321 C44.5453478,13.3996897 44.8586039,13.7098881 45.2556377,13.9348273 C45.6526715,14.1597665 46.0952367,14.2722361 46.5833333,14.2722361 Z" id="Shape"></path>
                    <polygon id="Path" points="58.0666667 17.2902566 54.1666667 17.2902566 54.1666667 0.864512829 58.0666667 0.864512829"></polygon>
                    <path d="M62.3946502,4.24307501 C61.9737997,4.24307501 61.5993141,4.14257151 61.2711934,3.94156452 C60.9430727,3.74055752 60.6880658,3.47742108 60.5061728,3.15215521 C60.3242798,2.82688934 60.2333333,2.48517744 60.2333333,2.12701952 C60.2333333,1.76886159 60.3242798,1.42532236 60.5061728,1.09640181 C60.6880658,0.767481269 60.9430727,0.502517497 61.2711934,0.301510498 C61.5993141,0.100503499 61.9773663,0 62.4053498,0 C62.8262003,0 63.2006859,0.100503499 63.5288066,0.301510498 C63.8569273,0.502517497 64.1119342,0.767481269 64.2938272,1.09640181 C64.4757202,1.42532236 64.5666667,1.76886159 64.5666667,2.12701952 C64.5666667,2.49248679 64.4757202,2.83602602 64.2938272,3.15763722 C64.1119342,3.47924842 63.8569273,3.74055752 63.5288066,3.94156452 C63.2006859,4.14257151 62.8226337,4.24307501 62.3946502,4.24307501 Z M64.1600823,17.2902566 L60.5436214,17.2902566 L60.5436214,5.66839737 L64.1600823,5.66839737 L64.1600823,17.2902566 Z" id="Shape"></path>
                    <path d="M73.4312209,5.18707697 C74.3326188,5.18707697 75.1286114,5.39215241 75.8191985,5.80230329 C76.5097856,6.21245417 77.0458993,6.80530863 77.4275396,7.58086666 C77.8091799,8.35642468 78,9.27739984 78,10.3437921 L78,17.2902566 L74.3144455,17.2902566 L74.3144455,11.026134 C74.3144455,10.2729479 74.1345294,9.6856864 73.7746971,9.26434959 C73.4148649,8.84301277 72.9296365,8.63234437 72.3190121,8.63234437 C71.8973905,8.63234437 71.5066636,8.73488209 71.1468313,8.93995753 C70.7869991,9.14503297 70.5034949,9.41908833 70.2963187,9.76212361 C70.0891426,10.1051589 69.9855545,10.4668374 69.9855545,10.8471591 L69.9855545,17.2902566 L66.3,17.2902566 L66.3,5.4331675 L69.1350419,5.4331675 L69.6693383,6.853781 C70.1127679,6.36159995 70.6870457,5.96077068 71.3921715,5.6512932 C72.0972973,5.34181572 72.7769804,5.18707697 73.4312209,5.18707697 Z" id="Path"></path>
                    <path d="M88.5810127,5.89170204 L91.4333333,5.89170204 L91.4333333,15.6969736 C91.4333333,16.9317115 91.1992968,17.9921334 90.7312236,18.8782394 C90.2631505,19.7643455 89.5738397,20.4416355 88.6632911,20.9101096 C87.7527426,21.3785837 86.650211,21.6128207 85.3556962,21.6128207 C84.4707454,21.6128207 83.5309423,21.4857154 82.5362869,21.2315046 C81.5416315,20.9772939 80.7481013,20.6395567 80.1556962,20.2182932 L81.5379747,17.4292382 C82.1230661,17.7560806 82.6953586,18.004844 83.2548523,18.1755283 C83.814346,18.3462127 84.3902954,18.4315549 84.9827004,18.4315549 C85.8383966,18.4315549 86.5185654,18.2227389 87.0232068,17.8051069 C87.5278481,17.387475 87.7801688,16.7573955 87.7801688,15.9148685 L87.7801688,15.805921 C86.9756681,16.4378163 86.0285513,16.7537639 84.9388186,16.7537639 C83.9222222,16.7537639 82.9824191,16.5267901 82.1194093,16.0728423 C81.2563994,15.6188946 80.5707454,14.9869993 80.0624473,14.1771565 C79.5541491,13.3673137 79.3,12.4539708 79.3,11.4371278 C79.3,10.4130217 79.5559775,9.45428403 80.0679325,8.56091485 C80.5798875,7.66754566 81.2691983,6.95393979 82.135865,6.42009723 C83.0025316,5.88625467 83.9405063,5.61933339 84.949789,5.61933339 C86.2296765,5.61933339 87.304782,6.0623864 88.1751055,6.94849242 L88.5810127,5.89170204 Z M85.4544304,13.6378665 C85.9078762,13.6378665 86.3229255,13.5307349 86.6995781,13.3164715 C87.0762307,13.1022082 87.3706048,12.8153132 87.5827004,12.4557866 C87.7947961,12.09626 87.9008439,11.7131281 87.9008439,11.3063909 C87.9008439,10.8560747 87.7929677,10.4457059 87.5772152,10.0752846 C87.3614627,9.70486319 87.0670886,9.41252084 86.6940928,9.1982575 C86.321097,8.98399416 85.9078762,8.87686249 85.4544304,8.87686249 C85.0009845,8.87686249 84.5841069,8.98399416 84.2037975,9.1982575 C83.823488,9.41252084 83.5254571,9.70486319 83.3097046,10.0752846 C83.0939522,10.4457059 82.9860759,10.8560747 82.9860759,11.3063909 C82.9860759,11.7131281 83.0939522,12.09626 83.3097046,12.4557866 C83.5254571,12.8153132 83.823488,13.1022082 84.2037975,13.3164715 C84.5841069,13.5307349 85.0009845,13.6378665 85.4544304,13.6378665 Z" id="Shape"></path>
                </g>
                <g id="Group-2-Copy-7">
                    <path d="M13.4330025,0.876239955 C15.0450036,-0.292079985 17.228189,-0.292079985 18.8405464,0.876239955 L18.8405464,0.876239955 L30.3771864,9.94804702 C31.9891875,11.1167224 32.6640615,13.1874957 32.0479806,15.0780628 L32.0479806,15.0780628 L27.8088168,26.3162556 C27.0933221,28.5128535 25.0412632,30 22.7258824,30 L22.7258824,30 L22.1,30 L17.3768629,26.3206943 C16.6826033,25.8223779 15.7425527,25.8223779 15.0484464,26.3206943 L10.324,30 L9.54766652,30 C7.309465,30 5.31732328,28.6103442 4.54069697,26.5335217 L4.46473204,26.3162556 L0.225568241,15.0780628 C-0.390512637,13.1874957 0.284361384,11.1167224 1.89636248,9.94804702 L1.89636248,9.94804702 Z" id="Combined-Shape"></path>
                </g>
            </g>
        </g>
    </g>
</svg>