<?xml version="1.0" encoding="UTF-8"?>
<svg width="337px" height="97px" viewBox="0 0 337 97" version="1.1" xmlns="http://www.w3.org/2000/svg" xmlns:xlink="http://www.w3.org/1999/xlink">
    <title>Group 27</title>
    <defs>
        <linearGradient x1="50%" y1="50%" x2="50%" y2="107.52663%" id="linearGradient-1">
            <stop stop-color="#FF931E" offset="0%"></stop>
            <stop stop-color="#FF6F17" offset="100%"></stop>
        </linearGradient>
    </defs>
    <g id="Page-1" stroke="none" stroke-width="1" fill="none" fill-rule="evenodd">
        <g id="prelaunch-site" transform="translate(-108.000000, -40.000000)">
            <g id="Group-27" transform="translate(108.000000, 40.000000)">
                <g id="Group-Copy-6">
                    <g id="inmoling-copy-3" transform="translate(94.636667, 14.927255)" fill="#000000" fill-rule="nonzero">
                        <path d="M5.30353909,10.4662517 C4.27083676,10.4662517 3.35190672,10.2183431 2.54674897,9.7225258 C1.74159122,9.22670854 1.11584362,8.57763867 0.669506173,7.77531619 C0.223168724,6.9729937 0,6.13010436 0,5.24664814 C0,4.36319192 0.223168724,3.51579514 0.669506173,2.7044578 C1.11584362,1.89312046 1.74159122,1.23954316 2.54674897,0.743725896 C3.35190672,0.247908632 4.27958848,0 5.32979424,0 C6.36249657,0 7.28142661,0.247908632 8.08658436,0.743725896 C8.89174211,1.23954316 9.51748971,1.89312046 9.96382716,2.7044578 C10.4101646,3.51579514 10.6333333,4.36319192 10.6333333,5.24664814 C10.6333333,6.14813407 10.4101646,6.99553085 9.96382716,7.78883847 C9.51748971,8.5821461 8.89174211,9.22670854 8.08658436,9.7225258 C7.28142661,10.2183431 6.35374486,10.4662517 5.30353909,10.4662517 Z M9.63563786,42.6492996 L0.761399177,42.6492996 L0.761399177,13.9820468 L9.63563786,13.9820468 L9.63563786,42.6492996 Z" id="Shape"></path>
                        <path d="M33.4489189,12.7947899 C35.6608108,12.7947899 37.6140541,13.3006426 39.3086486,14.3123481 C41.0032432,15.3240536 42.3187838,16.7864279 43.2552703,18.6994711 C44.1917568,20.6125142 44.66,22.8842529 44.66,25.5146873 L44.66,42.6492996 L35.6162162,42.6492996 L35.6162162,27.1977973 C35.6162162,25.3399381 35.1747297,23.8913598 34.2917568,22.8520623 C33.4087838,21.8127648 32.2181081,21.2931161 30.7197297,21.2931161 C29.6851351,21.2931161 28.7263514,21.5460425 27.8433784,22.0518952 C26.9604054,22.557748 26.2647297,23.2337512 25.7563514,24.0799049 C25.247973,24.9260586 24.9937838,25.8181989 24.9937838,26.7563258 L24.9937838,42.6492996 L15.95,42.6492996 L15.95,13.4018132 L22.9067568,13.4018132 L24.2178378,16.9059931 C25.3059459,15.6919465 26.7151351,14.7032343 28.4454054,13.9398566 C30.1756757,13.1764788 31.8435135,12.7947899 33.4489189,12.7947899 Z" id="Path"></path>
                        <path d="M85.179587,12.7947899 C87.3016532,12.7947899 89.1494694,13.2749865 90.7230354,14.2353797 C92.2966014,15.195773 93.5194871,16.6363628 94.3916922,18.5571493 C95.2638974,20.4779357 95.7,22.8286125 95.7,25.6091796 L95.7,42.6492996 L86.5823088,42.6492996 L86.5823088,26.8714107 C86.5823088,25.0969699 86.2136447,23.7432727 85.4763166,22.8103193 C84.7389885,21.8773659 83.6779554,21.4108892 82.2932173,21.4108892 C81.4120203,21.4108892 80.6162455,21.6304076 79.9058928,22.0694445 C79.1955402,22.5084814 78.6245605,23.1030106 78.1929538,23.853032 C77.7613471,24.6030534 77.5005847,25.4079544 77.4106667,26.267735 L77.4106667,42.6492996 L68.2929754,42.6492996 L68.2929754,26.8714107 C68.2929754,25.0969699 67.9243114,23.7432727 67.1869833,22.8103193 C66.4496552,21.8773659 65.3886221,21.4108892 64.003884,21.4108892 C63.0687362,21.4108892 62.2235064,21.6624207 61.4681947,22.1654839 C60.712883,22.668547 60.1284156,23.3362489 59.7147925,24.1685897 C59.3011695,25.0009306 59.0943579,25.8927243 59.0943579,26.8439709 L59.0943579,42.6492996 L49.9766667,42.6492996 L49.9766667,13.5631045 L56.9902753,13.5631045 L58.069292,16.4168444 C59.2382268,15.2643725 60.5869977,14.3725788 62.1156047,13.7414632 C63.6442117,13.1103476 65.2357614,12.7947899 66.8902537,12.7947899 C68.7785329,12.7947899 70.4510088,13.1835205 71.9076814,13.9609817 C73.364354,14.7384428 74.5512724,15.8771948 75.4684366,17.3772376 C76.6373714,15.9503676 78.0805562,14.8299089 79.7979912,14.0158613 C81.5154261,13.2018137 83.3092914,12.7947899 85.179587,12.7947899 Z" id="Path"></path>
                        <path d="M114.22789,43.7155321 C111.385554,43.7155321 108.793486,43.0532917 106.451687,41.7288111 C104.109888,40.4043304 102.264157,38.6055425 100.914494,36.3324474 C99.5648314,34.0593522 98.89,31.5714764 98.89,28.8688199 C98.89,26.1124683 99.5693005,23.5887958 100.927901,21.2978022 C102.286502,19.0068087 104.141171,17.194597 106.491909,15.8611671 C108.842646,14.5277373 111.448121,13.8610224 114.308333,13.8610224 C117.168546,13.8610224 119.774021,14.5277373 122.124758,15.8611671 C124.475495,17.194597 126.330164,19.0068087 127.688765,21.2978022 C129.047366,23.5887958 129.726667,26.1124683 129.726667,28.8688199 C129.726667,31.5893748 129.047366,34.0817252 127.688765,36.3458712 C126.330164,38.6100171 124.466557,40.4043304 122.097943,41.7288111 C119.72933,43.0532917 117.105979,43.7155321 114.22789,43.7155321 Z M114.308333,35.204849 C115.506047,35.204849 116.592034,34.927424 117.566294,34.372574 C118.540554,33.817724 119.309236,33.0525679 119.872341,32.0771058 C120.435445,31.1016437 120.716997,30.0143167 120.716997,28.8151248 C120.716997,27.5980345 120.435445,26.4972837 119.872341,25.5128724 C119.309236,24.5284611 118.540554,23.7588304 117.566294,23.2039804 C116.592034,22.6491304 115.506047,22.3717054 114.308333,22.3717054 C113.110619,22.3717054 112.024632,22.6491304 111.050372,23.2039804 C110.076113,23.7588304 109.30743,24.5284611 108.744326,25.5128724 C108.181222,26.4972837 107.89967,27.5980345 107.89967,28.8151248 C107.89967,30.0143167 108.181222,31.1016437 108.744326,32.0771058 C109.30743,33.0525679 110.076113,33.817724 111.050372,34.372574 C112.024632,34.927424 113.110619,35.204849 114.308333,35.204849 Z" id="Shape"></path>
                        <polygon id="Path" points="142.486667 42.6492996 132.916667 42.6492996 132.916667 2.13246498 142.486667 2.13246498"></polygon>
                        <path d="M153.106872,10.4662517 C152.07417,10.4662517 151.15524,10.2183431 150.350082,9.7225258 C149.544925,9.22670854 148.919177,8.57763867 148.47284,7.77531619 C148.026502,6.9729937 147.803333,6.13010436 147.803333,5.24664814 C147.803333,4.36319192 148.026502,3.51579514 148.47284,2.7044578 C148.919177,1.89312046 149.544925,1.23954316 150.350082,0.743725896 C151.15524,0.247908632 152.082922,0 153.133128,0 C154.16583,0 155.08476,0.247908632 155.889918,0.743725896 C156.695075,1.23954316 157.320823,1.89312046 157.76716,2.7044578 C158.213498,3.51579514 158.436667,4.36319192 158.436667,5.24664814 C158.436667,6.14813407 158.213498,6.99553085 157.76716,7.78883847 C157.320823,8.5821461 156.695075,9.22670854 155.889918,9.7225258 C155.08476,10.2183431 154.157078,10.4662517 153.106872,10.4662517 Z M157.438971,42.6492996 L148.564733,42.6492996 L148.564733,13.9820468 L157.438971,13.9820468 L157.438971,42.6492996 Z" id="Shape"></path>
                        <path d="M180.188919,12.7947899 C182.400811,12.7947899 184.354054,13.3006426 186.048649,14.3123481 C187.743243,15.3240536 189.058784,16.7864279 189.99527,18.6994711 C190.931757,20.6125142 191.4,22.8842529 191.4,25.5146873 L191.4,42.6492996 L182.356216,42.6492996 L182.356216,27.1977973 C182.356216,25.3399381 181.91473,23.8913598 181.031757,22.8520623 C180.148784,21.8127648 178.958108,21.2931161 177.45973,21.2931161 C176.425135,21.2931161 175.466351,21.5460425 174.583378,22.0518952 C173.700405,22.557748 173.00473,23.2337512 172.496351,24.0799049 C171.987973,24.9260586 171.733784,25.8181989 171.733784,26.7563258 L171.733784,42.6492996 L162.69,42.6492996 L162.69,13.4018132 L169.646757,13.4018132 L170.957838,16.9059931 C172.045946,15.6919465 173.455135,14.7032343 175.185405,13.9398566 C176.915676,13.1764788 178.583514,12.7947899 180.188919,12.7947899 Z" id="Path"></path>
                        <path d="M217.364177,14.532865 L224.363333,14.532865 L224.363333,38.7192015 C224.363333,41.7648883 223.789044,44.3805958 222.640464,46.566324 C221.491885,48.7520521 219.800422,50.4227009 217.566076,51.5782703 C215.33173,52.7338398 212.626287,53.3116245 209.449747,53.3116245 C207.278214,53.3116245 204.972082,52.9980979 202.53135,52.3710447 C200.090619,51.7439915 198.143418,50.9109066 196.689747,49.8717899 L200.081646,42.9921209 C201.51737,43.7983321 202.921688,44.4119484 204.294599,44.8329698 C205.667511,45.2539913 207.080802,45.464502 208.534473,45.464502 C210.634219,45.464502 212.303249,44.9494226 213.541561,43.9192638 C214.779873,42.889105 215.39903,41.334909 215.39903,39.2566756 L215.39903,38.9879385 C213.424909,40.5466136 211.10083,41.3259511 208.426793,41.3259511 C205.932222,41.3259511 203.62609,40.7660822 201.508397,39.6463444 C199.390703,38.5266066 197.708214,36.9679316 196.460928,34.9703193 C195.213643,32.9727071 194.59,30.7197946 194.59,28.211582 C194.59,25.6854535 195.218129,23.3205673 196.474388,21.1169233 C197.730647,18.9132793 199.42211,17.1530515 201.548776,15.8362398 C203.675443,14.5194282 205.977089,13.8610224 208.453713,13.8610224 C211.59436,13.8610224 214.232504,14.9538864 216.368143,17.1396146 L217.364177,14.532865 Z M209.692025,33.6400708 C210.804712,33.6400708 211.823179,33.3758127 212.747426,32.8472965 C213.671674,32.3187802 214.394023,31.6111059 214.914473,30.7242736 C215.434923,29.8374413 215.695148,28.8923826 215.695148,27.8890975 C215.695148,26.7783176 215.430436,25.7660746 214.901013,24.8523686 C214.371589,23.9386625 213.649241,23.2175514 212.733966,22.6890352 C211.818692,22.1605189 210.804712,21.8962608 209.692025,21.8962608 C208.579339,21.8962608 207.556385,22.1605189 206.623165,22.6890352 C205.689944,23.2175514 204.958622,23.9386625 204.429198,24.8523686 C203.899775,25.7660746 203.635063,26.7783176 203.635063,27.8890975 C203.635063,28.8923826 203.899775,29.8374413 204.429198,30.7242736 C204.958622,31.6111059 205.689944,32.3187802 206.623165,32.8472965 C207.556385,33.3758127 208.579339,33.6400708 209.692025,33.6400708 Z" id="Shape"></path>
                    </g>
                    <g id="Group-2-Copy-7" fill="url(#linearGradient-1)">
                        <path d="M32.9625215,2.16139189 C36.9181242,-0.720463963 42.2753252,-0.720463963 46.2318023,2.16139189 L46.2318023,2.16139189 L74.540942,24.538516 C78.4965447,27.4212486 80.1525817,32.5291562 78.640814,37.1925548 L78.640814,37.1925548 L68.2385582,64.9134305 C66.4828442,70.3317052 61.4474075,74 55.765819,74 L55.765819,74 L54.231,74 L42.6401483,64.9243792 C40.9365419,63.6951989 38.6298023,63.6951989 36.9265724,64.9243792 L25.335,74 L23.4285048,74 C17.8521309,74 12.8981988,70.46631 11.0566627,65.2126332 L10.9557655,64.9134305 L0.553509761,37.1925548 C-0.958257931,32.5291562 0.69777909,27.4212486 4.65338177,24.538516 L4.65338177,24.538516 Z" id="Combined-Shape"></path>
                    </g>
                </g>
                <g id="Group-66" transform="translate(264.500000, 79.500000) rotate(-2.000000) translate(-264.500000, -79.500000) translate(193.000000, 65.000000)">
                    <g id="Group-12" transform="translate(-0.000000, 0.000000)">
                        <rect id="Rectangle" fill="#F2F2F2" x="0" y="0" width="143" height="29" rx="14.5"></rect>
                        <g id="Muy-pronto-disponibl" transform="translate(13.683900, 8.874231)" fill="#000000" fill-rule="nonzero">
                            <polygon id="Path" points="1.453125 0.46875 4.2421875 7.4296875 7.03125 0.46875 8.49023438 0.46875 8.49023438 9 7.36523438 9 7.36523438 5.67773437 7.47070312 2.09179687 4.66992188 9 3.80859375 9 1.01367188 2.109375 1.125 5.67773437 1.125 9 0 9 0 0.46875"></polygon>
                            <path d="M14.2207031,8.37304688 C13.7988281,8.86914062 13.1796875,9.1171875 12.3632812,9.1171875 C11.6875,9.1171875 11.1728516,8.92089844 10.8193359,8.52832031 C10.4658203,8.13574219 10.2871094,7.5546875 10.2832031,6.78515625 L10.2832031,2.66015625 L11.3671875,2.66015625 L11.3671875,6.75585938 C11.3671875,7.71679688 11.7578125,8.19726562 12.5390625,8.19726562 C13.3671875,8.19726562 13.9179688,7.88867188 14.1914062,7.27148438 L14.1914062,2.66015625 L15.2753906,2.66015625 L15.2753906,9 L14.2441406,9 L14.2207031,8.37304688 Z" id="Path"></path>
                            <path d="M18.9960938,7.41210938 L20.4726562,2.66015625 L21.6328125,2.66015625 L19.0839844,9.97851562 C18.6894531,11.0332031 18.0625,11.5605469 17.203125,11.5605469 L16.9980469,11.5429688 L16.59375,11.4667969 L16.59375,10.5878906 L16.8867188,10.6113281 C17.2539062,10.6113281 17.5400391,10.5371094 17.7451172,10.3886719 C17.9501953,10.2402344 18.1191406,9.96875 18.2519531,9.57421875 L18.4921875,8.9296875 L16.2304688,2.66015625 L17.4140625,2.66015625 L18.9960938,7.41210938 Z" id="Path"></path>
                            <path d="M30.9257812,5.90039062 C30.9257812,6.86523437 30.7050781,7.64257812 30.2636719,8.23242187 C29.8222656,8.82226562 29.2246094,9.1171875 28.4707031,9.1171875 C27.7011719,9.1171875 27.0957031,8.87304687 26.6542969,8.38476562 L26.6542969,11.4375 L25.5703125,11.4375 L25.5703125,2.66015625 L26.5605469,2.66015625 L26.6132812,3.36328125 C27.0546875,2.81640625 27.6679688,2.54296875 28.453125,2.54296875 C29.2148438,2.54296875 29.8173828,2.83007812 30.2607422,3.40429687 C30.7041016,3.97851562 30.9257812,4.77734375 30.9257812,5.80078125 L30.9257812,5.90039062 Z M29.8417969,5.77734375 C29.8417969,5.0625 29.6894531,4.49804687 29.3847656,4.08398437 C29.0800781,3.66992187 28.6621094,3.46289062 28.1308594,3.46289062 C27.4746094,3.46289062 26.9824219,3.75390625 26.6542969,4.3359375 L26.6542969,7.36523437 C26.9785156,7.94335937 27.4746094,8.23242187 28.1425781,8.23242187 C28.6621094,8.23242187 29.0751953,8.02636719 29.3818359,7.61425781 C29.6884766,7.20214844 29.8417969,6.58984375 29.8417969,5.77734375 Z" id="Shape"></path>
                            <path d="M35.3671875,3.6328125 C35.203125,3.60546875 35.0253906,3.59179687 34.8339844,3.59179687 C34.1230469,3.59179687 33.640625,3.89453125 33.3867188,4.5 L33.3867188,9 L32.3027344,9 L32.3027344,2.66015625 L33.3574219,2.66015625 L33.375,3.39257812 C33.7304688,2.82617187 34.234375,2.54296875 34.8867188,2.54296875 C35.0976562,2.54296875 35.2578125,2.5703125 35.3671875,2.625 L35.3671875,3.6328125 Z" id="Path"></path>
                            <path d="M35.9589844,5.77148438 C35.9589844,5.15039062 36.0810547,4.59179688 36.3251953,4.09570312 C36.5693359,3.59960938 36.9091797,3.21679688 37.3447266,2.94726562 C37.7802734,2.67773438 38.2773437,2.54296875 38.8359375,2.54296875 C39.6992187,2.54296875 40.3974609,2.84179688 40.9306641,3.43945312 C41.4638672,4.03710938 41.7304687,4.83203125 41.7304687,5.82421875 L41.7304687,5.90039062 C41.7304687,6.51757812 41.6123047,7.07128906 41.3759766,7.56152344 C41.1396484,8.05175781 40.8017578,8.43359375 40.3623047,8.70703125 C39.9228516,8.98046875 39.4179687,9.1171875 38.8476562,9.1171875 C37.9882812,9.1171875 37.2919922,8.81835938 36.7587891,8.22070312 C36.2255859,7.62304688 35.9589844,6.83203125 35.9589844,5.84765625 L35.9589844,5.77148438 Z M37.0488281,5.90039062 C37.0488281,6.60351562 37.2119141,7.16796875 37.5380859,7.59375 C37.8642578,8.01953125 38.3007812,8.23242188 38.8476562,8.23242188 C39.3984375,8.23242188 39.8359375,8.01660156 40.1601562,7.58496094 C40.484375,7.15332031 40.6464844,6.54882812 40.6464844,5.77148438 C40.6464844,5.07617188 40.4814453,4.51269531 40.1513672,4.08105469 C39.8212891,3.64941406 39.3828125,3.43359375 38.8359375,3.43359375 C38.3007812,3.43359375 37.8691406,3.64648438 37.5410156,4.07226562 C37.2128906,4.49804688 37.0488281,5.10742188 37.0488281,5.90039062 Z" id="Shape"></path>
                            <path d="M44.1152344,2.66015625 L44.1503906,3.45703125 C44.6347656,2.84765625 45.2675781,2.54296875 46.0488281,2.54296875 C47.3886719,2.54296875 48.0644531,3.29882812 48.0761719,4.81054688 L48.0761719,9 L46.9921875,9 L46.9921875,4.8046875 C46.9882812,4.34765625 46.8837891,4.00976562 46.6787109,3.79101562 C46.4736328,3.57226562 46.1542969,3.46289062 45.7207031,3.46289062 C45.3691406,3.46289062 45.0605469,3.55664062 44.7949219,3.74414062 C44.5292969,3.93164062 44.3222656,4.17773438 44.1738281,4.48242188 L44.1738281,9 L43.0898437,9 L43.0898437,2.66015625 L44.1152344,2.66015625 Z" id="Path"></path>
                            <path d="M51.1816406,1.125 L51.1816406,2.66015625 L52.3652344,2.66015625 L52.3652344,3.49804688 L51.1816406,3.49804688 L51.1816406,7.4296875 C51.1816406,7.68359375 51.234375,7.87402344 51.3398437,8.00097656 C51.4453125,8.12792969 51.625,8.19140625 51.8789062,8.19140625 C52.0039062,8.19140625 52.1757812,8.16796875 52.3945312,8.12109375 L52.3945312,9 C52.109375,9.078125 51.8320312,9.1171875 51.5625,9.1171875 C51.078125,9.1171875 50.7128906,8.97070312 50.4667969,8.67773438 C50.2207031,8.38476562 50.0976562,7.96875 50.0976562,7.4296875 L50.0976562,3.49804688 L48.9433594,3.49804688 L48.9433594,2.66015625 L50.0976562,2.66015625 L50.0976562,1.125 L51.1816406,1.125 Z" id="Path"></path>
                            <path d="M53.2265625,5.77148438 C53.2265625,5.15039062 53.3486328,4.59179688 53.5927734,4.09570312 C53.8369141,3.59960938 54.1767578,3.21679688 54.6123047,2.94726562 C55.0478516,2.67773438 55.5449219,2.54296875 56.1035156,2.54296875 C56.9667969,2.54296875 57.6650391,2.84179688 58.1982422,3.43945312 C58.7314453,4.03710938 58.9980469,4.83203125 58.9980469,5.82421875 L58.9980469,5.90039062 C58.9980469,6.51757812 58.8798828,7.07128906 58.6435547,7.56152344 C58.4072266,8.05175781 58.0693359,8.43359375 57.6298828,8.70703125 C57.1904297,8.98046875 56.6855469,9.1171875 56.1152344,9.1171875 C55.2558594,9.1171875 54.5595703,8.81835938 54.0263672,8.22070312 C53.4931641,7.62304688 53.2265625,6.83203125 53.2265625,5.84765625 L53.2265625,5.77148438 Z M54.3164063,5.90039062 C54.3164063,6.60351562 54.4794922,7.16796875 54.8056641,7.59375 C55.1318359,8.01953125 55.5683594,8.23242188 56.1152344,8.23242188 C56.6660156,8.23242188 57.1035156,8.01660156 57.4277344,7.58496094 C57.7519531,7.15332031 57.9140625,6.54882812 57.9140625,5.77148438 C57.9140625,5.07617188 57.7490234,4.51269531 57.4189453,4.08105469 C57.0888672,3.64941406 56.6503906,3.43359375 56.1035156,3.43359375 C55.5683594,3.43359375 55.1367188,3.64648438 54.8085938,4.07226562 C54.4804688,4.49804688 54.3164063,5.10742188 54.3164063,5.90039062 Z" id="Shape"></path>
                            <path d="M63.0644531,5.77734375 C63.0644531,4.8046875 63.2949219,4.02246094 63.7558594,3.43066406 C64.2167969,2.83886719 64.8203125,2.54296875 65.5664062,2.54296875 C66.3085938,2.54296875 66.8964844,2.796875 67.3300781,3.3046875 L67.3300781,0 L68.4140625,0 L68.4140625,9 L67.4179688,9 L67.3652344,8.3203125 C66.9316406,8.8515625 66.328125,9.1171875 65.5546875,9.1171875 C64.8203125,9.1171875 64.2216797,8.81640625 63.7587891,8.21484375 C63.2958984,7.61328125 63.0644531,6.828125 63.0644531,5.859375 L63.0644531,5.77734375 Z M64.1484375,5.90039062 C64.1484375,6.61914062 64.296875,7.18164062 64.59375,7.58789062 C64.890625,7.99414062 65.3007812,8.19726562 65.8242188,8.19726562 C66.5117188,8.19726562 67.0136719,7.88867188 67.3300781,7.27148438 L67.3300781,4.359375 C67.0058594,3.76171875 66.5078125,3.46289062 65.8359375,3.46289062 C65.3046875,3.46289062 64.890625,3.66796875 64.59375,4.078125 C64.296875,4.48828125 64.1484375,5.09570312 64.1484375,5.90039062 Z" id="Shape"></path>
                            <path d="M71.2734375,9 L70.1894531,9 L70.1894531,2.66015625 L71.2734375,2.66015625 L71.2734375,9 Z M70.1015625,0.978515625 C70.1015625,0.802734375 70.1552734,0.654296875 70.2626953,0.533203125 C70.3701172,0.412109375 70.5292969,0.3515625 70.7402344,0.3515625 C70.9511719,0.3515625 71.1113281,0.412109375 71.2207031,0.533203125 C71.3300781,0.654296875 71.3847656,0.802734375 71.3847656,0.978515625 C71.3847656,1.15429688 71.3300781,1.30078125 71.2207031,1.41796875 C71.1113281,1.53515625 70.9511719,1.59375 70.7402344,1.59375 C70.5292969,1.59375 70.3701172,1.53515625 70.2626953,1.41796875 C70.1552734,1.30078125 70.1015625,1.15429688 70.1015625,0.978515625 Z" id="Shape"></path>
                            <path d="M76.6992188,7.31835937 C76.6992188,7.02539062 76.5888672,6.79785156 76.3681641,6.63574219 C76.1474609,6.47363281 75.7626953,6.33398437 75.2138672,6.21679687 C74.6650391,6.09960937 74.2294922,5.95898437 73.9072266,5.79492187 C73.5849609,5.63085937 73.3466797,5.43554687 73.1923828,5.20898437 C73.0380859,4.98242187 72.9609375,4.71289062 72.9609375,4.40039062 C72.9609375,3.88085937 73.1806641,3.44140625 73.6201172,3.08203125 C74.0595703,2.72265625 74.6210938,2.54296875 75.3046875,2.54296875 C76.0234375,2.54296875 76.6064453,2.72851562 77.0537109,3.09960937 C77.5009766,3.47070312 77.7246094,3.9453125 77.7246094,4.5234375 L76.6347656,4.5234375 C76.6347656,4.2265625 76.5087891,3.97070312 76.2568359,3.75585937 C76.0048828,3.54101562 75.6875,3.43359375 75.3046875,3.43359375 C74.9101562,3.43359375 74.6015625,3.51953125 74.3789062,3.69140625 C74.15625,3.86328125 74.0449219,4.08789062 74.0449219,4.36523437 C74.0449219,4.62695312 74.1484375,4.82421875 74.3554688,4.95703125 C74.5625,5.08984375 74.9365234,5.21679687 75.4775391,5.33789062 C76.0185547,5.45898437 76.4570312,5.60351562 76.7929688,5.77148437 C77.1289062,5.93945312 77.3779297,6.14160156 77.5400391,6.37792969 C77.7021484,6.61425781 77.7832031,6.90234375 77.7832031,7.2421875 C77.7832031,7.80859375 77.5566406,8.26269531 77.1035156,8.60449219 C76.6503906,8.94628906 76.0625,9.1171875 75.3398438,9.1171875 C74.8320312,9.1171875 74.3828125,9.02734375 73.9921875,8.84765625 C73.6015625,8.66796875 73.2958984,8.41699219 73.0751953,8.09472656 C72.8544922,7.77246094 72.7441406,7.42382812 72.7441406,7.04882812 L73.828125,7.04882812 C73.8476562,7.41210937 73.9931641,7.70019531 74.2646484,7.91308594 C74.5361328,8.12597656 74.8945312,8.23242187 75.3398438,8.23242187 C75.75,8.23242187 76.0791016,8.14941406 76.3271484,7.98339844 C76.5751953,7.81738281 76.6992188,7.59570312 76.6992188,7.31835937 Z" id="Path"></path>
                            <path d="M84.5507812,5.90039062 C84.5507812,6.86523437 84.3300781,7.64257812 83.8886719,8.23242187 C83.4472656,8.82226562 82.8496094,9.1171875 82.0957031,9.1171875 C81.3261719,9.1171875 80.7207031,8.87304687 80.2792969,8.38476562 L80.2792969,11.4375 L79.1953125,11.4375 L79.1953125,2.66015625 L80.1855469,2.66015625 L80.2382812,3.36328125 C80.6796875,2.81640625 81.2929688,2.54296875 82.078125,2.54296875 C82.8398438,2.54296875 83.4423828,2.83007812 83.8857422,3.40429687 C84.3291016,3.97851562 84.5507812,4.77734375 84.5507812,5.80078125 L84.5507812,5.90039062 Z M83.4667969,5.77734375 C83.4667969,5.0625 83.3144531,4.49804687 83.0097656,4.08398437 C82.7050781,3.66992187 82.2871094,3.46289062 81.7558594,3.46289062 C81.0996094,3.46289062 80.6074219,3.75390625 80.2792969,4.3359375 L80.2792969,7.36523437 C80.6035156,7.94335937 81.0996094,8.23242187 81.7675781,8.23242187 C82.2871094,8.23242187 82.7001953,8.02636719 83.0068359,7.61425781 C83.3134766,7.20214844 83.4667969,6.58984375 83.4667969,5.77734375 Z" id="Shape"></path>
                            <path d="M85.640625,5.77148437 C85.640625,5.15039062 85.7626953,4.59179687 86.0068359,4.09570312 C86.2509766,3.59960937 86.5908203,3.21679687 87.0263672,2.94726562 C87.4619141,2.67773437 87.9589844,2.54296875 88.5175781,2.54296875 C89.3808594,2.54296875 90.0791016,2.84179687 90.6123047,3.43945312 C91.1455078,4.03710937 91.4121094,4.83203125 91.4121094,5.82421875 L91.4121094,5.90039062 C91.4121094,6.51757812 91.2939453,7.07128906 91.0576172,7.56152344 C90.8212891,8.05175781 90.4833984,8.43359375 90.0439453,8.70703125 C89.6044922,8.98046875 89.0996094,9.1171875 88.5292969,9.1171875 C87.6699219,9.1171875 86.9736328,8.81835937 86.4404297,8.22070312 C85.9072266,7.62304687 85.640625,6.83203125 85.640625,5.84765625 L85.640625,5.77148437 Z M86.7304688,5.90039062 C86.7304688,6.60351562 86.8935547,7.16796875 87.2197266,7.59375 C87.5458984,8.01953125 87.9824219,8.23242187 88.5292969,8.23242187 C89.0800781,8.23242187 89.5175781,8.01660156 89.8417969,7.58496094 C90.1660156,7.15332031 90.328125,6.54882812 90.328125,5.77148437 C90.328125,5.07617187 90.1630859,4.51269531 89.8330078,4.08105469 C89.5029297,3.64941406 89.0644531,3.43359375 88.5175781,3.43359375 C87.9824219,3.43359375 87.5507812,3.64648437 87.2226562,4.07226562 C86.8945312,4.49804687 86.7304688,5.10742187 86.7304688,5.90039062 Z" id="Shape"></path>
                            <path d="M93.796875,2.66015625 L93.8320312,3.45703125 C94.3164062,2.84765625 94.9492188,2.54296875 95.7304688,2.54296875 C97.0703125,2.54296875 97.7460938,3.29882812 97.7578125,4.81054687 L97.7578125,9 L96.6738281,9 L96.6738281,4.8046875 C96.6699219,4.34765625 96.5654297,4.00976562 96.3603516,3.79101562 C96.1552734,3.57226562 95.8359375,3.46289062 95.4023438,3.46289062 C95.0507812,3.46289062 94.7421875,3.55664062 94.4765625,3.74414062 C94.2109375,3.93164062 94.0039062,4.17773437 93.8554688,4.48242187 L93.8554688,9 L92.7714844,9 L92.7714844,2.66015625 L93.796875,2.66015625 Z" id="Path"></path>
                            <path d="M100.570312,9 L99.4863281,9 L99.4863281,2.66015625 L100.570312,2.66015625 L100.570312,9 Z M99.3984375,0.978515625 C99.3984375,0.802734375 99.4521484,0.654296875 99.5595703,0.533203125 C99.6669922,0.412109375 99.8261719,0.3515625 100.037109,0.3515625 C100.248047,0.3515625 100.408203,0.412109375 100.517578,0.533203125 C100.626953,0.654296875 100.681641,0.802734375 100.681641,0.978515625 C100.681641,1.15429687 100.626953,1.30078125 100.517578,1.41796875 C100.408203,1.53515625 100.248047,1.59375 100.037109,1.59375 C99.8261719,1.59375 99.6669922,1.53515625 99.5595703,1.41796875 C99.4521484,1.30078125 99.3984375,1.15429687 99.3984375,0.978515625 Z" id="Shape"></path>
                            <path d="M107.671875,5.90039062 C107.671875,6.86914062 107.449219,7.64746094 107.003906,8.23535156 C106.558594,8.82324219 105.960938,9.1171875 105.210938,9.1171875 C104.410156,9.1171875 103.791016,8.83398437 103.353516,8.26757812 L103.300781,9 L102.304688,9 L102.304688,-2.27373675e-13 L103.388672,-2.27373675e-13 L103.388672,3.35742187 C103.826172,2.81445312 104.429688,2.54296875 105.199219,2.54296875 C105.96875,2.54296875 106.573242,2.83398437 107.012695,3.41601562 C107.452148,3.99804687 107.671875,4.79492187 107.671875,5.80664062 L107.671875,5.90039062 Z M106.587891,5.77734375 C106.587891,5.0390625 106.445312,4.46875 106.160156,4.06640625 C105.875,3.6640625 105.464844,3.46289062 104.929688,3.46289062 C104.214844,3.46289062 103.701172,3.79492187 103.388672,4.45898437 L103.388672,7.20117187 C103.720703,7.86523437 104.238281,8.19726562 104.941406,8.19726562 C105.460938,8.19726562 105.865234,7.99609375 106.154297,7.59375 C106.443359,7.19140625 106.587891,6.5859375 106.587891,5.77734375 Z" id="Shape"></path>
                            <polygon id="Path" points="110.214844 9 109.130859 9 109.130859 -2.27373675e-13 110.214844 -2.27373675e-13"></polygon>
                            <path d="M114.580078,9.1171875 C113.720703,9.1171875 113.021484,8.83496094 112.482422,8.27050781 C111.943359,7.70605469 111.673828,6.95117187 111.673828,6.00585937 L111.673828,5.80664062 C111.673828,5.17773437 111.793945,4.61621094 112.03418,4.12207031 C112.274414,3.62792969 112.610352,3.24121094 113.041992,2.96191406 C113.473633,2.68261719 113.941406,2.54296875 114.445312,2.54296875 C115.269531,2.54296875 115.910156,2.81445312 116.367187,3.35742187 C116.824219,3.90039062 117.052734,4.67773437 117.052734,5.68945312 L117.052734,6.140625 L112.757812,6.140625 C112.773437,6.765625 112.956055,7.27050781 113.305664,7.65527344 C113.655273,8.04003906 114.099609,8.23242187 114.638672,8.23242187 C115.021484,8.23242187 115.345703,8.15429687 115.611328,7.99804687 C115.876953,7.84179687 116.109375,7.63476562 116.308594,7.37695312 L116.970703,7.89257812 C116.439453,8.70898437 115.642578,9.1171875 114.580078,9.1171875 Z M114.445312,3.43359375 C114.007812,3.43359375 113.640625,3.59277344 113.34375,3.91113281 C113.046875,4.22949219 112.863281,4.67578125 112.792969,5.25 L115.96875,5.25 L115.96875,5.16796875 C115.9375,4.6171875 115.789062,4.19042969 115.523437,3.88769531 C115.257812,3.58496094 114.898437,3.43359375 114.445312,3.43359375 Z" id="Shape"></path>
                        </g>
                    </g>
                </g>
            </g>
        </g>
    </g>
</svg>