<?xml version="1.0" encoding="UTF-8"?>
<svg width="374px" height="349px" viewBox="0 0 374 349" version="1.1" xmlns="http://www.w3.org/2000/svg" xmlns:xlink="http://www.w3.org/1999/xlink">
    <title>Bitmap Copy 2</title>
    <defs>
        <path d="M155.667508,10.1935915 C174.348082,-3.39786383 199.647789,-3.39786383 218.332492,10.1935915 L218.332492,10.1935915 L352.024122,115.728947 C370.704696,129.324537 378.525431,153.414534 371.386017,175.40813 L371.386017,175.40813 L322.260732,306.145773 C313.969266,331.699529 290.189111,349 263.357464,349 L263.357464,349 L256.559,349 L201.779412,306.253652 C193.717698,300.456815 182.801869,300.456815 174.741936,306.253652 L119.962,349 L110.642536,349 C84.0792057,349 60.5066418,332.043808 51.9926457,306.909901 L51.7392676,306.145773 L2.61398344,175.40813 C-4.52543123,153.414534 3.2953041,129.324537 21.9758778,115.728947 L21.9758778,115.728947 Z" id="path-1"></path>
    </defs>
    <g id="Page-1" stroke="none" stroke-width="1" fill="none" fill-rule="evenodd">
        <g id="Bitmap-Copy-2">
            <mask id="mask-2" fill="white">
                <use xlink:href="#path-1"></use>
            </mask>
            <use id="Mask" fill-opacity="0.85" fill="#000000" xlink:href="#path-1"></use>
        </g>
    </g>
</svg>