<?xml version="1.0" encoding="UTF-8"?>
<svg width="239px" height="58px" viewBox="0 0 239 58" version="1.1" xmlns="http://www.w3.org/2000/svg" xmlns:xlink="http://www.w3.org/1999/xlink">
    <title>Group 6</title>
    <g id="Page-1" stroke="none" stroke-width="1" fill="none" fill-rule="evenodd">
        <g id="prelaunch-site" transform="translate(-142.000000, -527.000000)" fill-rule="nonzero">
            <g id="Group-18" transform="translate(76.000000, 151.000000)">
                <g id="Group-14" transform="translate(66.806641, 376.000000)">
                    <g id="Group-7" transform="translate(39.193359, 0.000000)">
                        <path d="M42.0271248,14 L58.4918626,14 L58.4918626,16.9705573 L52.0090416,16.9705573 L52.0090416,33.7160883 L48.4556962,33.7160883 L48.4556962,16.9705573 L42,16.9705573 L42.0271248,14 Z M57.7866184,19.4416404 L60.8245931,19.4416404 L60.8245931,22.2018927 L60.8788427,22.2018927 C60.9873418,21.807571 61.1772152,21.4395373 61.4484629,21.0715037 C61.7197107,20.70347 62.045208,20.3617245 62.4520796,20.0725552 C62.8318264,19.7570978 63.2658228,19.5205047 63.7540687,19.3364879 C64.2151899,19.1524711 64.7034358,19.0473186 65.1916817,19.0473186 C65.5714286,19.0473186 65.8426763,19.0736067 65.9783002,19.0736067 C66.1139241,19.0998948 66.2766727,19.126183 66.4122966,19.126183 L66.4122966,22.1493165 C66.1952984,22.0967403 65.9511754,22.0704522 65.7070524,22.044164 C65.4629295,22.0178759 65.2459313,21.9915878 65.0018083,21.9915878 C64.4593128,21.9915878 63.9439421,22.0967403 63.4556962,22.3070452 C62.9674503,22.5173502 62.5605787,22.8328076 62.1808318,23.2271293 C61.8282098,23.6477392 61.5298373,24.1472135 61.3128391,24.7518402 C61.0958409,25.3564669 60.9873418,26.0662461 60.9873418,26.8548896 L60.9873418,33.637224 L57.7323689,33.637224 L57.7866184,19.4416404 Z M81.3309222,33.7160883 L78.1301989,33.7160883 L78.1301989,31.7181914 L78.0759494,31.7181914 C77.6690778,32.4542587 77.0723327,33.0063091 76.2857143,33.4532072 C75.4990958,33.9001052 74.6853526,34.1104101 73.8716094,34.1104101 C71.9457505,34.1104101 70.5352622,33.6635121 69.6672694,32.7171399 C68.7992767,31.7970557 68.3652803,30.3774974 68.3652803,28.511041 L68.3652803,19.4416404 L71.6202532,19.4416404 L71.6202532,28.1955836 C71.6202532,29.4574132 71.8643761,30.3512093 72.3797468,30.8506835 C72.8679928,31.3764458 73.5732369,31.639327 74.4683544,31.639327 C75.1464738,31.639327 75.716094,31.5341746 76.1772152,31.3238696 C76.6383363,31.1135647 77.0180832,30.8506835 77.2893309,30.508938 C77.5877034,30.1671924 77.7775769,29.7465825 77.9132007,29.2733964 C78.0488246,28.8002103 78.1030741,28.2744479 78.1030741,27.7223975 L78.1030741,19.4416404 L81.358047,19.4416404 L81.358047,33.7160883 L81.3309222,33.7160883 Z M86.8643761,29.1419558 C86.9728752,30.06204 87.3254973,30.6929548 87.9493671,31.0872766 C88.5732369,31.4553102 89.3327306,31.639327 90.2007233,31.639327 C90.4990958,31.639327 90.8517179,31.6130389 91.2314647,31.5604627 C91.6112116,31.5078864 91.9909584,31.4290221 92.3164557,31.2975815 C92.6690778,31.1661409 92.9403255,30.9821241 93.1573237,30.7192429 C93.3743219,30.4563617 93.482821,30.1409043 93.4556962,29.7465825 C93.4285714,29.3522608 93.2929476,29.0105152 92.994575,28.7476341 C92.6962025,28.4847529 92.3435805,28.3007361 91.9095841,28.1167192 C91.4755877,27.9589905 90.960217,27.8275499 90.3905967,27.7223975 C89.8209765,27.617245 89.2513562,27.4858044 88.6546112,27.3543638 C88.0578662,27.2229232 87.4611212,27.0651945 86.8915009,26.8811777 C86.3218807,26.6971609 85.8336347,26.4605678 85.3725136,26.1188223 C84.9385172,25.8033649 84.5587703,25.4090431 84.3146474,24.9095689 C84.0433996,24.4100946 83.9077758,23.831756 83.9077758,23.0956887 C83.9077758,22.3070452 84.0976492,21.6761304 84.5045208,21.150368 C84.8842676,20.6246057 85.3996383,20.2039958 85.9963834,19.8885384 C86.5931284,19.573081 87.2712477,19.3364879 88.0036166,19.2050473 C88.7359855,19.0736067 89.4412297,19.0210305 90.0922242,19.0210305 C90.8517179,19.0210305 91.5840868,19.0998948 92.2622061,19.2576236 C92.9403255,19.4153523 93.5913201,19.6519453 94.1338156,20.019979 C94.7034358,20.3617245 95.164557,20.8349106 95.517179,21.3869611 C95.8969259,21.9390116 96.1139241,22.6225026 96.2224231,23.4111462 L92.8318264,23.4111462 C92.6690778,22.6487907 92.3164557,22.1493165 91.7739602,21.8864353 C91.20434,21.6235542 90.5804702,21.4921136 89.8481013,21.4921136 C89.6311031,21.4921136 89.3327306,21.5184017 89.034358,21.5446898 C88.7088608,21.597266 88.437613,21.6498423 88.1392405,21.7549947 C87.8679928,21.8601472 87.6238698,22.0178759 87.4339964,22.2018927 C87.244123,22.3859096 87.1356239,22.6487907 87.1356239,22.9642482 C87.1356239,23.3585699 87.2712477,23.6477392 87.5424955,23.8843323 C87.8137432,24.1209253 88.1663653,24.3049422 88.6274864,24.488959 C89.0614828,24.6466877 89.5768535,24.7781283 90.1464738,24.8832808 C90.716094,24.9884332 91.3128391,25.1198738 91.9095841,25.2513144 C92.5063291,25.382755 93.0759494,25.5404837 93.6455696,25.7245005 C94.2151899,25.9085174 94.7305606,26.1451104 95.164557,26.4868559 C95.5985533,26.8023134 95.9783002,27.1966351 96.2495479,27.6698212 C96.5207957,28.1430074 96.6564195,28.7476341 96.6564195,29.4311251 C96.6564195,30.2723449 96.4665461,30.9821241 96.0596745,31.5867508 C95.6528029,32.1650894 95.1374322,32.6645636 94.5135624,33.0325973 C93.8896926,33.4006309 93.1573237,33.6635121 92.39783,33.8475289 C91.6112116,34.0052576 90.8517179,34.1104101 90.0922242,34.1104101 C89.1699819,34.1104101 88.3019892,34.0052576 87.5153707,33.7949527 C86.7287523,33.5846477 86.0235081,33.2691903 85.4538879,32.8748686 C84.8842676,32.4542587 84.4231465,31.9547844 84.0976492,31.3238696 C83.7721519,30.7192429 83.5822785,29.9831756 83.5551537,29.1156677 L86.8372514,29.1156677 L86.8372514,29.1419558 L86.8643761,29.1419558 Z M97.5786618,19.4416404 L100.047016,19.4416404 L100.047016,15.1303891 L103.301989,15.1303891 L103.301989,19.4153523 L106.231465,19.4153523 L106.231465,21.7549947 L103.301989,21.7549947 L103.301989,29.3785489 C103.301989,29.7202944 103.329114,29.9831756 103.356239,30.2460568 C103.383363,30.4826498 103.464738,30.6929548 103.546112,30.8506835 C103.654611,31.0084122 103.81736,31.1398528 104.007233,31.2187171 C104.224231,31.2975815 104.495479,31.3501577 104.875226,31.3501577 C105.092224,31.3501577 105.336347,31.3501577 105.553345,31.3238696 C105.770344,31.2975815 106.014467,31.2712934 106.231465,31.2187171 L106.231465,33.6635121 C105.878843,33.7160883 105.526221,33.7423764 105.173599,33.7686646 C104.820976,33.8212408 104.495479,33.8212408 104.115732,33.8212408 C103.24774,33.8212408 102.56962,33.7423764 102.05425,33.5846477 C101.538879,33.426919 101.132007,33.190326 100.833635,32.9011567 C100.535262,32.5856993 100.345389,32.2176656 100.23689,31.7707676 C100.128391,31.3238696 100.074141,30.7718191 100.047016,30.1934805 L100.047016,21.7812829 L97.5786618,21.7812829 L97.5786618,19.3890641 L97.5786618,19.4416404 Z M108.509946,19.4416404 L111.575045,19.4416404 L111.575045,21.3869611 L111.629295,21.3869611 C112.090416,20.5457413 112.714286,19.9674027 113.528029,19.5993691 C114.341772,19.2313354 115.209765,19.0473186 116.186257,19.0473186 C117.352622,19.0473186 118.356239,19.2313354 119.224231,19.6519453 C120.092224,20.0462671 120.797468,20.5720294 121.367089,21.2818086 C121.936709,21.9652997 122.370705,22.7802313 122.641953,23.7003155 C122.913201,24.6203996 123.075949,25.6193481 123.075949,26.6445846 C123.075949,27.617245 122.940325,28.5373291 122.696203,29.4311251 C122.424955,30.3249211 122.045208,31.1398528 121.529837,31.8233438 C121.014467,32.5068349 120.363472,33.0588854 119.549729,33.4794953 C118.735986,33.9001052 117.813743,34.1104101 116.728752,34.1104101 C116.267631,34.1104101 115.779385,34.0578339 115.318264,33.9789695 C114.857143,33.9001052 114.396022,33.7686646 113.962025,33.5846477 C113.528029,33.4006309 113.121157,33.1640379 112.768535,32.8748686 C112.388788,32.5856993 112.090416,32.2439537 111.846293,31.8759201 L111.792043,31.8759201 L111.792043,39 L108.537071,39 L108.537071,19.4416404 L108.509946,19.4416404 Z M119.875226,26.5920084 C119.875226,25.9610936 119.793852,25.3301788 119.603978,24.7255521 C119.44123,24.1209253 119.169982,23.595163 118.81736,23.1219769 C118.464738,22.6487907 118.030741,22.2807571 117.542495,21.9915878 C117.027125,21.7024185 116.43038,21.5709779 115.779385,21.5709779 C114.423146,21.5709779 113.392405,22.0178759 112.687161,22.93796 C112.009042,23.8580442 111.65642,25.0935857 111.65642,26.6182965 C111.65642,27.3543638 111.737794,28.0115668 111.927667,28.6161935 C112.117541,29.2208202 112.361664,29.7465825 112.74141,30.1934805 C113.094033,30.6403785 113.528029,30.9821241 114.0434,31.2450053 C114.55877,31.5078864 115.128391,31.639327 115.80651,31.639327 C116.566004,31.639327 117.162749,31.4815983 117.678119,31.192429 C118.19349,30.9032597 118.600362,30.508938 118.952984,30.06204 C119.278481,29.5888538 119.522604,29.0630915 119.658228,28.4584648 C119.793852,27.8275499 119.875226,27.2229232 119.875226,26.5920084 L119.875226,26.5920084 Z M125.598553,14 L128.853526,14 L128.853526,16.9705573 L125.598553,16.9705573 L125.598553,14 Z M125.598553,19.4416404 L128.853526,19.4416404 L128.853526,33.7160883 L125.598553,33.7160883 L125.598553,19.4416404 Z M131.755877,14 L135.01085,14 L135.01085,33.7160883 L131.755877,33.7160883 L131.755877,14 Z M144.938517,34.1104101 C143.772152,34.1104101 142.714286,33.9263933 141.792043,33.5320715 C140.869801,33.1377497 140.110307,32.6382755 139.459313,31.9810726 C138.835443,31.3238696 138.347197,30.508938 138.0217,29.5888538 C137.696203,28.6687697 137.506329,27.6435331 137.506329,26.5657203 C137.506329,25.4879075 137.669078,24.488959 138.0217,23.5688749 C138.347197,22.6487907 138.835443,21.8601472 139.459313,21.1766562 C140.083183,20.5194532 140.869801,19.9936909 141.792043,19.6256572 C142.714286,19.2576236 143.772152,19.0473186 144.938517,19.0473186 C146.104882,19.0473186 147.162749,19.2313354 148.084991,19.6256572 C149.007233,19.9936909 149.766727,20.5194532 150.417722,21.1766562 C151.041591,21.8338591 151.529837,22.6487907 151.855335,23.5688749 C152.180832,24.488959 152.370705,25.4879075 152.370705,26.5657203 C152.370705,27.6698212 152.207957,28.6687697 151.855335,29.5888538 C151.502712,30.508938 151.041591,31.2975815 150.417722,31.9810726 C149.793852,32.6382755 149.007233,33.1640379 148.084991,33.5320715 C147.162749,33.9001052 146.132007,34.1104101 144.938517,34.1104101 Z M144.938517,31.6130389 C145.643761,31.6130389 146.294756,31.4553102 146.810127,31.1661409 C147.352622,30.8769716 147.759494,30.4826498 148.112116,30.0094637 C148.464738,29.5362776 148.708861,28.9842271 148.871609,28.4058885 C149.034358,27.8012618 149.115732,27.1966351 149.115732,26.5657203 C149.115732,25.9610936 149.034358,25.3564669 148.871609,24.7518402 C148.708861,24.1472135 148.464738,23.6214511 148.112116,23.148265 C147.759494,22.6750789 147.325497,22.3070452 146.810127,22.0178759 C146.267631,21.7287066 145.643761,21.5709779 144.938517,21.5709779 C144.233273,21.5709779 143.582278,21.7287066 143.066908,22.0178759 C142.524412,22.3070452 142.117541,22.701367 141.764919,23.148265 C141.412297,23.6214511 141.168174,24.1472135 141.005425,24.7518402 C140.842676,25.3564669 140.761302,25.9610936 140.761302,26.5657203 C140.761302,27.1966351 140.842676,27.8012618 141.005425,28.4058885 C141.168174,29.0105152 141.412297,29.5362776 141.764919,30.0094637 C142.117541,30.4826498 142.551537,30.8769716 143.066908,31.1661409 C143.609403,31.4815983 144.233273,31.6130389 144.938517,31.6130389 Z M153.347197,19.4416404 L155.815552,19.4416404 L155.815552,15.1303891 L159.070524,15.1303891 L159.070524,19.4153523 L162,19.4153523 L162,21.7549947 L159.070524,21.7549947 L159.070524,29.3785489 C159.070524,29.7202944 159.097649,29.9831756 159.124774,30.2460568 C159.151899,30.4826498 159.233273,30.6929548 159.314647,30.8506835 C159.423146,31.0084122 159.585895,31.1398528 159.775769,31.2187171 C159.992767,31.2975815 160.264014,31.3501577 160.643761,31.3501577 C160.860759,31.3501577 161.104882,31.3501577 161.321881,31.3238696 C161.538879,31.2975815 161.783002,31.2712934 162,31.2187171 L162,33.6635121 C161.647378,33.7160883 161.294756,33.7423764 160.942134,33.7686646 C160.589512,33.8212408 160.264014,33.8212408 159.884268,33.8212408 C159.016275,33.8212408 158.338156,33.7423764 157.822785,33.5846477 C157.307414,33.426919 156.900542,33.190326 156.60217,32.9011567 C156.303797,32.5856993 156.113924,32.2176656 156.005425,31.7707676 C155.896926,31.3238696 155.842676,30.7718191 155.815552,30.1934805 L155.815552,21.7812829 L153.347197,21.7812829 L153.347197,19.3890641 L153.347197,19.4416404 Z" id="Shape" fill="#000000"></path>
                        <polygon id="Path" fill="#00B67A" points="39 14.1390922 24.1002088 14.1390922 19.5135699 0 14.8997912 14.1390922 0 14.1120059 12.0501044 22.8609078 7.43632568 37 19.4864301 28.2510981 31.5365344 37 26.9498956 22.8609078"></polygon>
                        <polygon id="Path" fill="#005128" points="28 25.9648241 26.9038462 23 19 28"></polygon>
                    </g>
                    <g id="Over-79,458-reviews." transform="translate(0.000000, 45.500000)" fill="#000000">
                        <path d="M8.00488281,5.84472656 C8.00488281,6.81998698 7.84082031,7.6710612 7.51269531,8.39794922 C7.18457031,9.12483724 6.71972656,9.6796875 6.11816406,10.0625 C5.51660156,10.4453125 4.81477865,10.6367188 4.01269531,10.6367188 C3.22884115,10.6367188 2.53385417,10.4441732 1.92773438,10.059082 C1.32161458,9.67399089 0.851074219,9.12483724 0.516113281,8.41162109 C0.181152344,7.69840495 0.00911458333,6.87239583 0,5.93359375 L0,5.21582031 C0,4.25878906 0.166341146,3.41341146 0.499023438,2.6796875 C0.831705729,1.94596354 1.30224609,1.38427734 1.91064453,0.994628906 C2.51904297,0.604980469 3.21516927,0.41015625 3.99902344,0.41015625 C4.79654948,0.41015625 5.49951172,0.602701823 6.10791016,0.987792969 C6.71630859,1.37288411 7.18457031,1.93115234 7.51269531,2.66259766 C7.84082031,3.39404297 8.00488281,4.24511719 8.00488281,5.21582031 L8.00488281,5.84472656 Z M6.69921875,5.20214844 C6.69921875,4.0218099 6.46223958,3.11604818 5.98828125,2.48486328 C5.51432292,1.85367839 4.85123698,1.53808594 3.99902344,1.53808594 C3.16959635,1.53808594 2.51676432,1.85367839 2.04052734,2.48486328 C1.56429036,3.11604818 1.31933594,3.9921875 1.30566406,5.11328125 L1.30566406,5.84472656 C1.30566406,6.98860677 1.5460612,7.88753255 2.02685547,8.54150391 C2.50764974,9.19547526 3.16959635,9.52246094 4.01269531,9.52246094 C4.86035156,9.52246094 5.51660156,9.21370443 5.98144531,8.59619141 C6.44628906,7.97867839 6.68554688,7.09342448 6.69921875,5.94042969 L6.69921875,5.20214844 Z" id="Shape"></path>
                        <polygon id="Path" points="12.2158203 8.78417969 14.0478516 3.10351562 15.3398438 3.10351562 12.6875 10.5 11.7236328 10.5 9.04394531 3.10351562 10.3359375 3.10351562"></polygon>
                        <path d="M19.5371094,10.6367188 C18.5345052,10.6367188 17.71875,10.3074544 17.0898438,9.64892578 C16.4609375,8.99039714 16.1464844,8.10970052 16.1464844,7.00683594 L16.1464844,6.77441406 C16.1464844,6.0406901 16.2866211,5.38557943 16.5668945,4.80908203 C16.847168,4.23258464 17.2390951,3.78141276 17.7426758,3.45556641 C18.2462565,3.12972005 18.7919922,2.96679688 19.3798828,2.96679688 C20.3414714,2.96679688 21.0888672,3.28352865 21.6220703,3.91699219 C22.1552734,4.55045573 22.421875,5.45735677 22.421875,6.63769531 L22.421875,7.1640625 L17.4111328,7.1640625 C17.429362,7.89322917 17.6424154,8.48225911 18.050293,8.93115234 C18.4581706,9.38004557 18.9765625,9.60449219 19.6054688,9.60449219 C20.0520833,9.60449219 20.4303385,9.51334635 20.7402344,9.33105469 C21.0501302,9.14876302 21.3212891,8.90722656 21.5537109,8.60644531 L22.3261719,9.20800781 C21.7063802,10.1604818 20.7766927,10.6367188 19.5371094,10.6367188 Z M19.3798828,4.00585938 C18.8694661,4.00585938 18.4410807,4.19156901 18.0947266,4.56298828 C17.7483724,4.93440755 17.5341797,5.45507812 17.4521484,6.125 L21.1572266,6.125 L21.1572266,6.02929688 C21.1207682,5.38671875 20.9475911,4.88883464 20.6376953,4.53564453 C20.3277995,4.18245443 19.9085286,4.00585938 19.3798828,4.00585938 Z" id="Shape"></path>
                        <path d="M27.4599609,4.23828125 C27.2685547,4.20638021 27.0611979,4.19042969 26.8378906,4.19042969 C26.0084635,4.19042969 25.445638,4.54361979 25.1494141,5.25 L25.1494141,10.5 L23.8847656,10.5 L23.8847656,3.10351562 L25.1152344,3.10351562 L25.1357422,3.95800781 C25.5504557,3.29720052 26.1383464,2.96679688 26.8994141,2.96679688 C27.1455078,2.96679688 27.3323568,2.99869792 27.4599609,3.0625 L27.4599609,4.23828125 Z" id="Path"></path>
                        <polygon id="Path" points="38.3837891 1.2578125 34.2617188 10.5 32.9355469 10.5 37.0439453 1.5859375 31.6572266 1.5859375 31.6572266 0.546875 38.3837891 0.546875"></polygon>
                        <path d="M44.6660156,6.125 C44.4016927,6.43945312 44.0861003,6.69238281 43.7192383,6.88378906 C43.3523763,7.07519531 42.9501953,7.17089844 42.5126953,7.17089844 C41.9384766,7.17089844 41.4383138,7.0296224 41.012207,6.74707031 C40.5861003,6.46451823 40.2568359,6.06689453 40.0244141,5.55419922 C39.7919922,5.04150391 39.6757812,4.47526042 39.6757812,3.85546875 C39.6757812,3.19010417 39.8022461,2.59082031 40.0551758,2.05761719 C40.3081055,1.52441406 40.6669922,1.11653646 41.1318359,0.833984375 C41.5966797,0.551432292 42.1389974,0.41015625 42.7587891,0.41015625 C43.7431641,0.41015625 44.519043,0.778157552 45.0864258,1.51416016 C45.6538086,2.25016276 45.9375,3.25390625 45.9375,4.52539062 L45.9375,4.89453125 C45.9375,6.83138021 45.5546875,8.24527995 44.7890625,9.13623047 C44.0234375,10.027181 42.8681641,10.4840495 41.3232422,10.5068359 L41.0771484,10.5068359 L41.0771484,9.44042969 L41.34375,9.44042969 C42.3873698,9.42220052 43.1894531,9.14990234 43.75,8.62353516 C44.3105469,8.09716797 44.6158854,7.26432292 44.6660156,6.125 Z M42.7177734,6.125 C43.1416016,6.125 43.5323893,5.99511719 43.8901367,5.73535156 C44.2478841,5.47558594 44.5087891,5.15429688 44.6728516,4.77148438 L44.6728516,4.265625 C44.6728516,3.43619792 44.4928385,2.76171875 44.1328125,2.2421875 C43.7727865,1.72265625 43.3170573,1.46289062 42.765625,1.46289062 C42.2096354,1.46289062 41.7630208,1.67594401 41.4257812,2.10205078 C41.0885417,2.52815755 40.9199219,3.08984375 40.9199219,3.78710938 C40.9199219,4.46614583 41.0828451,5.02555339 41.4086914,5.46533203 C41.7345378,5.90511068 42.1708984,6.125 42.7177734,6.125 Z" id="Shape"></path>
                        <path d="M47.7695312,12.4824219 L47.0517578,11.9902344 C47.4801432,11.3932292 47.7034505,10.7779948 47.7216797,10.1445312 L47.7216797,9.00292969 L48.9589844,9.00292969 L48.9589844,9.99414062 C48.9589844,10.4544271 48.8461914,10.9147135 48.6206055,11.375 C48.3950195,11.8352865 48.1113281,12.2044271 47.7695312,12.4824219 Z" id="Path"></path>
                        <path d="M55.7675781,7.15722656 L57.1484375,7.15722656 L57.1484375,8.18945312 L55.7675781,8.18945312 L55.7675781,10.5 L54.4960938,10.5 L54.4960938,8.18945312 L49.9638672,8.18945312 L49.9638672,7.44433594 L54.4208984,0.546875 L55.7675781,0.546875 L55.7675781,7.15722656 Z M51.3994141,7.15722656 L54.4960938,7.15722656 L54.4960938,2.27636719 L54.3457031,2.54980469 L51.3994141,7.15722656 Z" id="Shape"></path>
                        <path d="M58.8710938,5.50976562 L59.3769531,0.546875 L64.4765625,0.546875 L64.4765625,1.71582031 L60.4501953,1.71582031 L60.1494141,4.4296875 C60.6370443,4.14257812 61.1907552,3.99902344 61.8105469,3.99902344 C62.7174479,3.99902344 63.4375,4.29866536 63.9707031,4.89794922 C64.5039062,5.49723307 64.7705078,6.30729167 64.7705078,7.328125 C64.7705078,8.35351562 64.4936523,9.16129557 63.9399414,9.75146484 C63.3862305,10.3416341 62.6126302,10.6367188 61.6191406,10.6367188 C60.7395833,10.6367188 60.0218099,10.3929036 59.4658203,9.90527344 C58.9098307,9.41764323 58.593099,8.74316406 58.515625,7.88183594 L59.7119141,7.88183594 C59.789388,8.4514974 59.9921875,8.88102214 60.3203125,9.17041016 C60.6484375,9.45979818 61.0813802,9.60449219 61.6191406,9.60449219 C62.2070312,9.60449219 62.668457,9.40397135 63.003418,9.00292969 C63.3383789,8.60188802 63.5058594,8.04817708 63.5058594,7.34179688 C63.5058594,6.67643229 63.324707,6.14208984 62.9624023,5.73876953 C62.6000977,5.33544922 62.1181641,5.13378906 61.5166016,5.13378906 C60.9651693,5.13378906 60.5322266,5.25455729 60.2177734,5.49609375 L59.8828125,5.76953125 L58.8710938,5.50976562 Z" id="Path"></path>
                        <path d="M72.1875,3.14453125 C72.1875,3.64127604 72.0564779,4.08333333 71.7944336,4.47070312 C71.5323893,4.85807292 71.1780599,5.16113281 70.7314453,5.37988281 C71.2509766,5.6031901 71.6622721,5.92903646 71.965332,6.35742188 C72.2683919,6.78580729 72.4199219,7.27115885 72.4199219,7.81347656 C72.4199219,8.67480469 72.1293945,9.36067708 71.5483398,9.87109375 C70.9672852,10.3815104 70.2027995,10.6367188 69.2548828,10.6367188 C68.2978516,10.6367188 67.5310872,10.3803711 66.9545898,9.86767578 C66.3780924,9.35498047 66.0898438,8.6702474 66.0898438,7.81347656 C66.0898438,7.27571615 66.2368164,6.79036458 66.5307617,6.35742188 C66.824707,5.92447917 67.2314453,5.59635417 67.7509766,5.37304688 C67.3089193,5.15429688 66.9602865,4.85123698 66.7050781,4.46386719 C66.4498698,4.0764974 66.3222656,3.63671875 66.3222656,3.14453125 C66.3222656,2.30598958 66.5911458,1.640625 67.1289062,1.1484375 C67.6666667,0.65625 68.3753255,0.41015625 69.2548828,0.41015625 C70.1298828,0.41015625 70.8374023,0.65625 71.3774414,1.1484375 C71.9174805,1.640625 72.1875,2.30598958 72.1875,3.14453125 Z M71.1552734,7.78613281 C71.1552734,7.23014323 70.9786784,6.77669271 70.6254883,6.42578125 C70.2722982,6.07486979 69.8108724,5.89941406 69.2412109,5.89941406 C68.6715495,5.89941406 68.214681,6.07259115 67.8706055,6.41894531 C67.5265299,6.76529948 67.3544922,7.22102865 67.3544922,7.78613281 C67.3544922,8.35123698 67.5219727,8.79557292 67.8569336,9.11914062 C68.1918945,9.44270833 68.6578776,9.60449219 69.2548828,9.60449219 C69.8473307,9.60449219 70.3121745,9.44156901 70.6494141,9.11572266 C70.9866536,8.7898763 71.1552734,8.34667969 71.1552734,7.78613281 Z M69.2548828,1.44921875 C68.758138,1.44921875 68.355957,1.60302734 68.0483398,1.91064453 C67.7407227,2.21826172 67.5869141,2.63639323 67.5869141,3.16503906 C67.5869141,3.67089844 67.738444,4.07991536 68.0415039,4.39208984 C68.3445638,4.70426432 68.7490234,4.86035156 69.2548828,4.86035156 C69.7607422,4.86035156 70.1652018,4.70426432 70.4682617,4.39208984 C70.7713216,4.07991536 70.9228516,3.67089844 70.9228516,3.16503906 C70.9228516,2.65917969 70.765625,2.24674479 70.4511719,1.92773438 C70.1367188,1.60872396 69.7379557,1.44921875 69.2548828,1.44921875 Z" id="Shape"></path>
                        <path d="M81.1835938,4.23828125 C80.9921875,4.20638021 80.7848307,4.19042969 80.5615234,4.19042969 C79.7320964,4.19042969 79.1692708,4.54361979 78.8730469,5.25 L78.8730469,10.5 L77.6083984,10.5 L77.6083984,3.10351562 L78.8388672,3.10351562 L78.859375,3.95800781 C79.2740885,3.29720052 79.8619792,2.96679688 80.6230469,2.96679688 C80.8691406,2.96679688 81.0559896,2.99869792 81.1835938,3.0625 L81.1835938,4.23828125 Z" id="Path"></path>
                        <path d="M85.2851562,10.6367188 C84.2825521,10.6367188 83.4667969,10.3074544 82.8378906,9.64892578 C82.2089844,8.99039714 81.8945312,8.10970052 81.8945312,7.00683594 L81.8945312,6.77441406 C81.8945312,6.0406901 82.034668,5.38557943 82.3149414,4.80908203 C82.5952148,4.23258464 82.9871419,3.78141276 83.4907227,3.45556641 C83.9943034,3.12972005 84.5400391,2.96679688 85.1279297,2.96679688 C86.0895182,2.96679688 86.8369141,3.28352865 87.3701172,3.91699219 C87.9033203,4.55045573 88.1699219,5.45735677 88.1699219,6.63769531 L88.1699219,7.1640625 L83.1591797,7.1640625 C83.1774089,7.89322917 83.3904622,8.48225911 83.7983398,8.93115234 C84.2062174,9.38004557 84.7246094,9.60449219 85.3535156,9.60449219 C85.8001302,9.60449219 86.1783854,9.51334635 86.4882812,9.33105469 C86.7981771,9.14876302 87.0693359,8.90722656 87.3017578,8.60644531 L88.0742188,9.20800781 C87.4544271,10.1604818 86.5247396,10.6367188 85.2851562,10.6367188 Z M85.1279297,4.00585938 C84.617513,4.00585938 84.1891276,4.19156901 83.8427734,4.56298828 C83.4964193,4.93440755 83.2822266,5.45507812 83.2001953,6.125 L86.9052734,6.125 L86.9052734,6.02929688 C86.8688151,5.38671875 86.695638,4.88883464 86.3857422,4.53564453 C86.0758464,4.18245443 85.6565755,4.00585938 85.1279297,4.00585938 Z" id="Shape"></path>
                        <polygon id="Path" points="91.984375 8.78417969 93.8164062 3.10351562 95.1083984 3.10351562 92.4560547 10.5 91.4921875 10.5 88.8125 3.10351562 90.1044922 3.10351562"></polygon>
                        <path d="M97.6992188,10.5 L96.4345703,10.5 L96.4345703,3.10351562 L97.6992188,3.10351562 L97.6992188,10.5 Z M96.3320312,1.14160156 C96.3320312,0.936523438 96.394694,0.763346354 96.5200195,0.622070312 C96.6453451,0.480794271 96.8310547,0.41015625 97.0771484,0.41015625 C97.3232422,0.41015625 97.5100911,0.480794271 97.6376953,0.622070312 C97.7652995,0.763346354 97.8291016,0.936523438 97.8291016,1.14160156 C97.8291016,1.34667969 97.7652995,1.51757812 97.6376953,1.65429688 C97.5100911,1.79101562 97.3232422,1.859375 97.0771484,1.859375 C96.8310547,1.859375 96.6453451,1.79101562 96.5200195,1.65429688 C96.394694,1.51757812 96.3320312,1.34667969 96.3320312,1.14160156 Z" id="Shape"></path>
                        <path d="M102.791992,10.6367188 C101.789388,10.6367188 100.973633,10.3074544 100.344727,9.64892578 C99.7158203,8.99039714 99.4013672,8.10970052 99.4013672,7.00683594 L99.4013672,6.77441406 C99.4013672,6.0406901 99.5415039,5.38557943 99.8217773,4.80908203 C100.102051,4.23258464 100.493978,3.78141276 100.997559,3.45556641 C101.501139,3.12972005 102.046875,2.96679688 102.634766,2.96679688 C103.596354,2.96679688 104.34375,3.28352865 104.876953,3.91699219 C105.410156,4.55045573 105.676758,5.45735677 105.676758,6.63769531 L105.676758,7.1640625 L100.666016,7.1640625 C100.684245,7.89322917 100.897298,8.48225911 101.305176,8.93115234 C101.713053,9.38004557 102.231445,9.60449219 102.860352,9.60449219 C103.306966,9.60449219 103.685221,9.51334635 103.995117,9.33105469 C104.305013,9.14876302 104.576172,8.90722656 104.808594,8.60644531 L105.581055,9.20800781 C104.961263,10.1604818 104.031576,10.6367188 102.791992,10.6367188 Z M102.634766,4.00585938 C102.124349,4.00585938 101.695964,4.19156901 101.349609,4.56298828 C101.003255,4.93440755 100.789062,5.45507812 100.707031,6.125 L104.412109,6.125 L104.412109,6.02929688 C104.375651,5.38671875 104.202474,4.88883464 103.892578,4.53564453 C103.582682,4.18245443 103.163411,4.00585938 102.634766,4.00585938 Z" id="Shape"></path>
                        <polygon id="Path" points="113.688477 8.75683594 115.110352 3.10351562 116.375 3.10351562 114.22168 10.5 113.196289 10.5 111.398438 4.89453125 109.648438 10.5 108.623047 10.5 106.476562 3.10351562 107.734375 3.10351562 109.19043 8.640625 110.913086 3.10351562 111.931641 3.10351562"></polygon>
                        <path d="M121.966797,8.53808594 C121.966797,8.19628906 121.838053,7.93082682 121.580566,7.74169922 C121.323079,7.55257161 120.874186,7.38964844 120.233887,7.25292969 C119.593587,7.11621094 119.085449,6.95214844 118.709473,6.76074219 C118.333496,6.56933594 118.055501,6.34147135 117.875488,6.07714844 C117.695475,5.81282552 117.605469,5.4983724 117.605469,5.13378906 C117.605469,4.52766927 117.861816,4.01497396 118.374512,3.59570312 C118.887207,3.17643229 119.542318,2.96679688 120.339844,2.96679688 C121.178385,2.96679688 121.858561,3.18326823 122.380371,3.61621094 C122.902181,4.04915365 123.163086,4.60286458 123.163086,5.27734375 L121.891602,5.27734375 C121.891602,4.93098958 121.744629,4.63248698 121.450684,4.38183594 C121.156738,4.1311849 120.786458,4.00585938 120.339844,4.00585938 C119.879557,4.00585938 119.519531,4.10611979 119.259766,4.30664062 C119,4.50716146 118.870117,4.76920573 118.870117,5.09277344 C118.870117,5.39811198 118.990885,5.62825521 119.232422,5.78320312 C119.473958,5.93815104 119.910319,6.08626302 120.541504,6.22753906 C121.172689,6.3688151 121.684245,6.5374349 122.076172,6.73339844 C122.468099,6.92936198 122.758626,7.16520182 122.947754,7.44091797 C123.136882,7.71663411 123.231445,8.05273438 123.231445,8.44921875 C123.231445,9.11002604 122.967122,9.6398112 122.438477,10.0385742 C121.909831,10.4373372 121.223958,10.6367188 120.380859,10.6367188 C119.788411,10.6367188 119.264323,10.531901 118.808594,10.3222656 C118.352865,10.1126302 117.996257,9.81982422 117.73877,9.44384766 C117.481283,9.06787109 117.352539,8.66113281 117.352539,8.22363281 L118.617188,8.22363281 C118.639974,8.64746094 118.809733,8.9835612 119.126465,9.23193359 C119.443197,9.48030599 119.861328,9.60449219 120.380859,9.60449219 C120.859375,9.60449219 121.243327,9.50764974 121.532715,9.31396484 C121.822103,9.12027995 121.966797,8.86165365 121.966797,8.53808594 Z" id="Path"></path>
                        <path d="M124.90625,9.83691406 C124.90625,9.61816406 124.971191,9.4358724 125.101074,9.29003906 C125.230957,9.14420573 125.425781,9.07128906 125.685547,9.07128906 C125.945312,9.07128906 126.142415,9.14420573 126.276855,9.29003906 C126.411296,9.4358724 126.478516,9.61816406 126.478516,9.83691406 C126.478516,10.0465495 126.411296,10.2220052 126.276855,10.3632812 C126.142415,10.5045573 125.945312,10.5751953 125.685547,10.5751953 C125.425781,10.5751953 125.230957,10.5045573 125.101074,10.3632812 C124.971191,10.2220052 124.90625,10.0465495 124.90625,9.83691406 Z" id="Path"></path>
                        <path d="M135.87793,6.47363281 L133.540039,6.47363281 L133.540039,10.5 L132.220703,10.5 L132.220703,0.546875 L135.515625,0.546875 C136.636719,0.546875 137.499186,0.802083333 138.103027,1.3125 C138.706868,1.82291667 139.008789,2.56575521 139.008789,3.54101562 C139.008789,4.16080729 138.841309,4.70084635 138.506348,5.16113281 C138.171387,5.62141927 137.705404,5.96549479 137.108398,6.19335938 L139.446289,10.4179688 L139.446289,10.5 L138.038086,10.5 L135.87793,6.47363281 Z M133.540039,5.40039062 L135.556641,5.40039062 C136.208333,5.40039062 136.726725,5.23177083 137.111816,4.89453125 C137.496908,4.55729167 137.689453,4.10611979 137.689453,3.54101562 C137.689453,2.92578125 137.506022,2.45410156 137.13916,2.12597656 C136.772298,1.79785156 136.242513,1.63151042 135.549805,1.62695312 L133.540039,1.62695312 L133.540039,5.40039062 Z" id="Shape"></path>
                        <path d="M145.21582,10.5 C145.142904,10.3541667 145.083659,10.094401 145.038086,9.72070312 C144.450195,10.3313802 143.748372,10.6367188 142.932617,10.6367188 C142.203451,10.6367188 141.605306,10.4305013 141.138184,10.0180664 C140.671061,9.60563151 140.4375,9.08268229 140.4375,8.44921875 C140.4375,7.67903646 140.730306,7.08089193 141.315918,6.65478516 C141.90153,6.22867839 142.72526,6.015625 143.787109,6.015625 L145.017578,6.015625 L145.017578,5.43457031 C145.017578,4.99251302 144.885417,4.64046224 144.621094,4.37841797 C144.356771,4.1163737 143.967122,3.98535156 143.452148,3.98535156 C143.000977,3.98535156 142.622721,4.09928385 142.317383,4.32714844 C142.012044,4.55501302 141.859375,4.83072917 141.859375,5.15429688 L140.587891,5.15429688 C140.587891,4.78515625 140.718913,4.42854818 140.980957,4.08447266 C141.243001,3.74039714 141.59847,3.46809896 142.047363,3.26757812 C142.496257,3.06705729 142.989583,2.96679688 143.527344,2.96679688 C144.379557,2.96679688 145.047201,3.17985026 145.530273,3.60595703 C146.013346,4.0320638 146.263997,4.6188151 146.282227,5.36621094 L146.282227,8.77050781 C146.282227,9.44954427 146.368815,9.98958333 146.541992,10.390625 L146.541992,10.5 L145.21582,10.5 Z M143.117188,9.53613281 C143.513672,9.53613281 143.889648,9.43359375 144.245117,9.22851562 C144.600586,9.0234375 144.858073,8.75683594 145.017578,8.42871094 L145.017578,6.91113281 L144.026367,6.91113281 C142.476888,6.91113281 141.702148,7.36458333 141.702148,8.27148438 C141.702148,8.66796875 141.83431,8.97786458 142.098633,9.20117188 C142.362956,9.42447917 142.702474,9.53613281 143.117188,9.53613281 Z" id="Shape"></path>
                        <path d="M149.980469,1.3125 L149.980469,3.10351562 L151.361328,3.10351562 L151.361328,4.08105469 L149.980469,4.08105469 L149.980469,8.66796875 C149.980469,8.96419271 150.041992,9.18636068 150.165039,9.33447266 C150.288086,9.48258464 150.497721,9.55664062 150.793945,9.55664062 C150.939779,9.55664062 151.140299,9.52929688 151.395508,9.47460938 L151.395508,10.5 C151.062826,10.5911458 150.739258,10.6367188 150.424805,10.6367188 C149.859701,10.6367188 149.433594,10.4658203 149.146484,10.1240234 C148.859375,9.78222656 148.71582,9.296875 148.71582,8.66796875 L148.71582,4.08105469 L147.369141,4.08105469 L147.369141,3.10351562 L148.71582,3.10351562 L148.71582,1.3125 L149.980469,1.3125 Z" id="Path"></path>
                        <path d="M155.907227,10.6367188 C154.904622,10.6367188 154.088867,10.3074544 153.459961,9.64892578 C152.831055,8.99039714 152.516602,8.10970052 152.516602,7.00683594 L152.516602,6.77441406 C152.516602,6.0406901 152.656738,5.38557943 152.937012,4.80908203 C153.217285,4.23258464 153.609212,3.78141276 154.112793,3.45556641 C154.616374,3.12972005 155.162109,2.96679688 155.75,2.96679688 C156.711589,2.96679688 157.458984,3.28352865 157.992188,3.91699219 C158.525391,4.55045573 158.791992,5.45735677 158.791992,6.63769531 L158.791992,7.1640625 L153.78125,7.1640625 C153.799479,7.89322917 154.012533,8.48225911 154.42041,8.93115234 C154.828288,9.38004557 155.34668,9.60449219 155.975586,9.60449219 C156.422201,9.60449219 156.800456,9.51334635 157.110352,9.33105469 C157.420247,9.14876302 157.691406,8.90722656 157.923828,8.60644531 L158.696289,9.20800781 C158.076497,10.1604818 157.14681,10.6367188 155.907227,10.6367188 Z M155.75,4.00585938 C155.239583,4.00585938 154.811198,4.19156901 154.464844,4.56298828 C154.11849,4.93440755 153.904297,5.45507812 153.822266,6.125 L157.527344,6.125 L157.527344,6.02929688 C157.490885,5.38671875 157.317708,4.88883464 157.007812,4.53564453 C156.697917,4.18245443 156.278646,4.00585938 155.75,4.00585938 Z" id="Shape"></path>
                        <path d="M159.947266,6.74023438 C159.947266,5.60546875 160.216146,4.69287109 160.753906,4.00244141 C161.291667,3.31201172 161.995768,2.96679688 162.866211,2.96679688 C163.732096,2.96679688 164.417969,3.26302083 164.923828,3.85546875 L164.923828,0 L166.188477,0 L166.188477,10.5 L165.026367,10.5 L164.964844,9.70703125 C164.458984,10.3268229 163.754883,10.6367188 162.852539,10.6367188 C161.995768,10.6367188 161.297363,10.2858073 160.757324,9.58398438 C160.217285,8.88216146 159.947266,7.96614583 159.947266,6.8359375 L159.947266,6.74023438 Z M161.211914,6.88378906 C161.211914,7.72233073 161.385091,8.37858073 161.731445,8.85253906 C162.077799,9.3264974 162.556315,9.56347656 163.166992,9.56347656 C163.969076,9.56347656 164.554688,9.20345052 164.923828,8.48339844 L164.923828,5.0859375 C164.545573,4.38867188 163.964518,4.04003906 163.180664,4.04003906 C162.560872,4.04003906 162.077799,4.27929688 161.731445,4.7578125 C161.385091,5.23632812 161.211914,5.94498698 161.211914,6.88378906 Z" id="Shape"></path>
                        <path d="M172.552734,0.9296875 L172.347656,3.37695312 L171.588867,3.37695312 L171.595703,0 L172.552734,0 L172.552734,0.9296875 Z M174.398438,0.9296875 L174.193359,3.37695312 L173.43457,3.37695312 L173.441406,0 L174.398438,0 L174.398438,0.9296875 Z" id="Shape"></path>
                        <polygon id="Path" points="181.917969 5.89941406 177.604492 5.89941406 177.604492 9.42675781 182.615234 9.42675781 182.615234 10.5 176.291992 10.5 176.291992 0.546875 182.546875 0.546875 182.546875 1.62695312 177.604492 1.62695312 177.604492 4.82617188 181.917969 4.82617188"></polygon>
                        <polygon id="Path" points="186.532227 5.80371094 188.172852 3.10351562 189.649414 3.10351562 187.229492 6.76074219 189.724609 10.5 188.261719 10.5 186.552734 7.73144531 184.84375 10.5 183.374023 10.5 185.869141 6.76074219 183.449219 3.10351562 184.912109 3.10351562"></polygon>
                        <path d="M193.819336,9.60449219 C194.270508,9.60449219 194.664714,9.46777344 195.001953,9.19433594 C195.339193,8.92089844 195.526042,8.57910156 195.5625,8.16894531 L196.758789,8.16894531 C196.736003,8.59277344 196.590169,8.99609375 196.321289,9.37890625 C196.052409,9.76171875 195.693522,10.0670573 195.244629,10.2949219 C194.795736,10.5227865 194.320638,10.6367188 193.819336,10.6367188 C192.812174,10.6367188 192.01123,10.3006185 191.416504,9.62841797 C190.821777,8.95621745 190.524414,8.03678385 190.524414,6.87011719 L190.524414,6.65820312 C190.524414,5.93815104 190.656576,5.29785156 190.920898,4.73730469 C191.185221,4.17675781 191.564616,3.74153646 192.059082,3.43164062 C192.553548,3.12174479 193.138021,2.96679688 193.8125,2.96679688 C194.641927,2.96679688 195.331217,3.21516927 195.880371,3.71191406 C196.429525,4.20865885 196.722331,4.85351562 196.758789,5.64648438 L195.5625,5.64648438 C195.526042,5.16796875 195.344889,4.77490234 195.019043,4.46728516 C194.693197,4.15966797 194.291016,4.00585938 193.8125,4.00585938 C193.169922,4.00585938 192.672038,4.23714193 192.318848,4.69970703 C191.965658,5.16227214 191.789062,5.83105469 191.789062,6.70605469 L191.789062,6.9453125 C191.789062,7.79752604 191.964518,8.45377604 192.31543,8.9140625 C192.666341,9.37434896 193.167643,9.60449219 193.819336,9.60449219 Z" id="Path"></path>
                        <path d="M201.25,10.6367188 C200.247396,10.6367188 199.431641,10.3074544 198.802734,9.64892578 C198.173828,8.99039714 197.859375,8.10970052 197.859375,7.00683594 L197.859375,6.77441406 C197.859375,6.0406901 197.999512,5.38557943 198.279785,4.80908203 C198.560059,4.23258464 198.951986,3.78141276 199.455566,3.45556641 C199.959147,3.12972005 200.504883,2.96679688 201.092773,2.96679688 C202.054362,2.96679688 202.801758,3.28352865 203.334961,3.91699219 C203.868164,4.55045573 204.134766,5.45735677 204.134766,6.63769531 L204.134766,7.1640625 L199.124023,7.1640625 C199.142253,7.89322917 199.355306,8.48225911 199.763184,8.93115234 C200.171061,9.38004557 200.689453,9.60449219 201.318359,9.60449219 C201.764974,9.60449219 202.143229,9.51334635 202.453125,9.33105469 C202.763021,9.14876302 203.03418,8.90722656 203.266602,8.60644531 L204.039062,9.20800781 C203.419271,10.1604818 202.489583,10.6367188 201.25,10.6367188 Z M201.092773,4.00585938 C200.582357,4.00585938 200.153971,4.19156901 199.807617,4.56298828 C199.461263,4.93440755 199.24707,5.45507812 199.165039,6.125 L202.870117,6.125 L202.870117,6.02929688 C202.833659,5.38671875 202.660482,4.88883464 202.350586,4.53564453 C202.04069,4.18245443 201.621419,4.00585938 201.092773,4.00585938 Z" id="Shape"></path>
                        <polygon id="Path" points="206.97168 10.5 205.707031 10.5 205.707031 0 206.97168 0"></polygon>
                        <polygon id="Path" points="210.369141 10.5 209.104492 10.5 209.104492 0 210.369141 0"></polygon>
                        <path d="M215.461914,10.6367188 C214.45931,10.6367188 213.643555,10.3074544 213.014648,9.64892578 C212.385742,8.99039714 212.071289,8.10970052 212.071289,7.00683594 L212.071289,6.77441406 C212.071289,6.0406901 212.211426,5.38557943 212.491699,4.80908203 C212.771973,4.23258464 213.1639,3.78141276 213.66748,3.45556641 C214.171061,3.12972005 214.716797,2.96679688 215.304688,2.96679688 C216.266276,2.96679688 217.013672,3.28352865 217.546875,3.91699219 C218.080078,4.55045573 218.34668,5.45735677 218.34668,6.63769531 L218.34668,7.1640625 L213.335938,7.1640625 C213.354167,7.89322917 213.56722,8.48225911 213.975098,8.93115234 C214.382975,9.38004557 214.901367,9.60449219 215.530273,9.60449219 C215.976888,9.60449219 216.355143,9.51334635 216.665039,9.33105469 C216.974935,9.14876302 217.246094,8.90722656 217.478516,8.60644531 L218.250977,9.20800781 C217.631185,10.1604818 216.701497,10.6367188 215.461914,10.6367188 Z M215.304688,4.00585938 C214.794271,4.00585938 214.365885,4.19156901 214.019531,4.56298828 C213.673177,4.93440755 213.458984,5.45507812 213.376953,6.125 L217.082031,6.125 L217.082031,6.02929688 C217.045573,5.38671875 216.872396,4.88883464 216.5625,4.53564453 C216.252604,4.18245443 215.833333,4.00585938 215.304688,4.00585938 Z" id="Shape"></path>
                        <path d="M221.005859,3.10351562 L221.046875,4.03320312 C221.611979,3.32226562 222.35026,2.96679688 223.261719,2.96679688 C224.82487,2.96679688 225.613281,3.84863281 225.626953,5.61230469 L225.626953,10.5 L224.362305,10.5 L224.362305,5.60546875 C224.357747,5.07226562 224.23584,4.6780599 223.996582,4.42285156 C223.757324,4.16764323 223.384766,4.04003906 222.878906,4.04003906 C222.46875,4.04003906 222.108724,4.14941406 221.798828,4.36816406 C221.488932,4.58691406 221.247396,4.87402344 221.074219,5.22949219 L221.074219,10.5 L219.80957,10.5 L219.80957,3.10351562 L221.005859,3.10351562 Z" id="Path"></path>
                        <path d="M229.25,1.3125 L229.25,3.10351562 L230.630859,3.10351562 L230.630859,4.08105469 L229.25,4.08105469 L229.25,8.66796875 C229.25,8.96419271 229.311523,9.18636068 229.43457,9.33447266 C229.557617,9.48258464 229.767253,9.55664062 230.063477,9.55664062 C230.20931,9.55664062 230.409831,9.52929688 230.665039,9.47460938 L230.665039,10.5 C230.332357,10.5911458 230.008789,10.6367188 229.694336,10.6367188 C229.129232,10.6367188 228.703125,10.4658203 228.416016,10.1240234 C228.128906,9.78222656 227.985352,9.296875 227.985352,8.66796875 L227.985352,4.08105469 L226.638672,4.08105469 L226.638672,3.10351562 L227.985352,3.10351562 L227.985352,1.3125 L229.25,1.3125 Z" id="Path"></path>
                        <path d="M233.043945,0.9296875 L232.838867,3.37695312 L232.080078,3.37695312 L232.086914,0 L233.043945,0 L233.043945,0.9296875 Z M234.889648,0.9296875 L234.68457,3.37695312 L233.925781,3.37695312 L233.932617,0 L234.889648,0 L234.889648,0.9296875 Z" id="Shape"></path>
                        <path d="M236.612305,9.83691406 C236.612305,9.61816406 236.677246,9.4358724 236.807129,9.29003906 C236.937012,9.14420573 237.131836,9.07128906 237.391602,9.07128906 C237.651367,9.07128906 237.84847,9.14420573 237.98291,9.29003906 C238.11735,9.4358724 238.18457,9.61816406 238.18457,9.83691406 C238.18457,10.0465495 238.11735,10.2220052 237.98291,10.3632812 C237.84847,10.5045573 237.651367,10.5751953 237.391602,10.5751953 C237.131836,10.5751953 236.937012,10.5045573 236.807129,10.3632812 C236.677246,10.2220052 236.612305,10.0465495 236.612305,9.83691406 Z" id="Path"></path>
                    </g>
                </g>
            </g>
        </g>
    </g>
</svg>