<?xml version="1.0" encoding="UTF-8"?>
<svg width="143px" height="9px" viewBox="0 0 143 9" version="1.1" xmlns="http://www.w3.org/2000/svg" xmlns:xlink="http://www.w3.org/1999/xlink">
    <title>Path</title>
    <g id="Page-1" stroke="none" stroke-width="1" fill="none" fill-rule="evenodd">
        <g id="prelaunch-site" transform="translate(-845.000000, -280.000000)" fill="#FF931E">
            <g id="Group-58" transform="translate(513.000000, 232.000000)">
                <g id="Group-18-Copy-2" transform="translate(403.349743, 54.627535) rotate(19.000000) translate(-403.349743, -54.627535) translate(336.414259, 29.627535)">
                    <path d="M94.6143965,11.9159425 C94.6143965,11.725001 94.7513045,11.5493348 94.8958186,11.5493348 C95.0555446,11.5493348 95.1087866,11.6638998 95.0175146,11.816653 C94.9338486,11.9617685 95.0403326,12.0916087 95.2609067,12.0916087 C95.8009328,12.0916087 96.0519309,11.6333491 95.6183887,11.4424076 C95.4358447,11.366031 95.7172668,11.3049297 96.2344749,11.3049297 C97.3069212,11.3049297 97.8621593,11.2056401 98.3337314,10.9077714 C98.5238815,10.7932064 98.7900915,10.7855688 98.9726356,10.9001337 C99.1779976,11.0223363 99.2160276,10.984148 99.0867256,10.7626558 C98.8053035,10.3043962 99.7712658,9.61700671 100.197202,9.97597676 C100.425382,10.1669183 100.896954,10.059991 101.81728,9.62464437 C103.163543,8.96780556 103.810053,8.83796533 104.068657,9.18929772 C104.258807,9.44897818 105.133497,9.13583409 105.133497,8.80741469 C105.133497,8.6699368 105.034619,8.57064721 104.874893,8.57064721 C104.737985,8.57064721 104.639107,8.34151739 104.661925,8.04364863 C104.692349,7.6617656 104.798833,7.59302666 105.042225,7.79924349 C105.224769,7.9519967 105.354071,8.19640184 105.323647,8.35679271 C105.179133,9.00599386 105.871279,8.80741469 106.190731,8.11238758 L106.533001,7.34862152 L107.05021,7.99018501 C107.331632,8.34151739 107.559812,8.48663294 107.559812,8.32624207 C107.559812,8.15821354 107.77278,8.02837331 108.046596,8.02837331 C108.79959,8.02837331 108.95171,7.71522923 108.45732,7.16531766 C107.894476,6.53902949 108.160686,6.49320353 108.776772,7.11185404 C109.271162,7.59302666 110.533758,7.66940326 111.256329,7.24933193 C111.522539,7.09657872 111.606205,6.96673849 111.431267,6.95910083 C111.256329,6.95146317 111.058573,6.76815931 110.974907,6.54666715 C110.876028,6.27934903 110.959695,6.21061009 111.256329,6.31753734 C111.575781,6.44737757 111.644235,6.37863862 111.522539,6.06549454 C111.431267,5.8210894 111.507327,5.59195958 111.712689,5.50794531 C111.940869,5.42393105 112.047353,5.59195958 112.009323,5.96620495 C111.918051,6.88272422 112.131019,7.23405661 112.633015,6.97437615 C112.884013,6.84453592 113.606583,6.63831908 114.222669,6.53902949 C114.846361,6.43210225 115.492872,6.18769711 115.652598,5.98148027 C115.804718,5.79053876 116.12417,5.68361151 116.31432,5.75235045 C116.50447,5.8210894 116.778286,5.73707513 116.88477,5.57668426 C117.021678,5.3551921 117.135768,5.34755444 117.257464,5.55377128 C117.37916,5.74471279 117.64537,5.72179981 118.13976,5.46975701 C118.649362,5.20243889 118.915572,5.18716357 119.128541,5.40101807 C119.356721,5.62251022 119.432781,5.61487256 119.432781,5.37046742 C119.432781,5.19480123 119.630537,5.04968568 119.873929,5.04968568 C120.117321,5.04968568 121.128919,4.8129182 122.102487,4.53796242 C123.068449,4.25536898 124.467954,3.94222489 125.1601,3.84293531 C125.890276,3.74364572 126.407484,3.53742888 126.37706,3.36940035 C126.33903,3.1860965 126.787784,3.0486186 127.517961,3.0104303 C128.947889,2.92641604 130.507119,2.66673558 130.704875,2.47579406 C130.780935,2.39941745 130.590785,2.33831617 130.294151,2.33831617 C130.005123,2.33831617 129.556369,2.10154869 129.297765,1.81895525 C128.917465,1.39124626 128.909859,1.28431901 129.252129,1.15447878 C129.525945,1.06282685 129.594399,1.14684112 129.495521,1.45234754 C129.366219,1.77312929 129.419461,1.81895525 129.678065,1.66620204 C129.891033,1.52872415 129.967093,1.55163713 129.868215,1.71966566 C129.411855,2.45288108 132.887798,2.20083828 133.648398,1.45234754 C133.975456,1.11629048 133.960244,0.986450245 133.481066,0.421263362 C133.100766,-0.0446339342 132.94104,-0.12101054 132.933434,0.176858223 C132.918222,0.474726986 132.857374,0.490002307 132.705254,0.237959508 C132.575952,0.0546556535 132.416226,-0.0369962736 132.324954,0.0546556535 C132.233682,0.131032259 131.746898,0.245597168 131.252507,0.306698453 C130.773329,0.367799738 130.043153,0.482364647 129.678065,0.551103592 C129.312977,0.627480198 128.544771,0.772595749 128.004745,0.864247676 C127.464719,0.955899603 126.666088,1.13920346 126.255364,1.25376837 L125.494764,1.46762286 L126.171698,1.75785397 C126.60524,1.94115782 126.688906,2.04808507 126.399878,2.05572273 C126.156486,2.06336039 125.799004,1.88005653 125.61646,1.66620204 C125.395886,1.39124626 125.182918,1.33778263 124.985162,1.4981735 C124.81783,1.6356514 124.09526,1.83423057 123.342266,1.94879548 C122.589271,2.06336039 121.729793,2.31540319 121.395129,2.52925768 C121.075677,2.74311218 120.588893,2.88822773 120.322683,2.86531475 C119.402357,2.77366282 119.128541,2.88059007 119.341509,3.23192246 C119.486023,3.4763276 119.432781,3.46868994 119.098117,3.20900948 C118.778664,2.94169136 118.626544,2.92641604 118.48203,3.14790819 C118.375546,3.33121205 118.162578,3.39995099 117.972428,3.33121205 C117.576916,3.1860965 116.892376,3.66726911 116.671802,4.24009366 C116.557712,4.54560008 116.512076,4.5226871 116.489258,4.14080407 C116.474046,3.78947168 116.329532,3.68254443 116.032898,3.804747 C115.789506,3.89639893 115.371176,3.96513788 115.074542,3.96513788 C114.777907,3.96513788 114.618181,4.07206512 114.694241,4.20954301 C114.952845,4.61433903 114.268305,4.88165715 114.009701,4.47686113 C113.849975,4.24009366 113.697855,4.19426769 113.560947,4.36993389 C113.446857,4.5226871 113.013315,4.67544031 112.549349,4.72126627 C112.092989,4.76709224 111.568175,4.87401949 111.339995,4.96567141 C111.127027,5.04968568 110.716302,5.1031493 110.47291,5.07259866 C109.856824,4.99622206 109.59822,5.52322064 110.008944,6.01966857 C110.24473,6.31753734 110.252336,6.51611651 110.031762,6.74524633 C109.795976,6.97437615 109.719916,6.94382551 109.719916,6.6154061 C109.719916,5.52322064 108.016172,5.92037899 107.711932,7.0813034 C107.559812,7.6999539 107.476146,7.76105519 107.12627,7.46318643 C106.89809,7.24933193 106.768787,6.92855018 106.829635,6.68414505 C106.905696,6.39391394 106.753575,6.26407371 106.320033,6.26407371 C105.589857,6.26407371 105.468161,6.85217358 106.152701,7.00492679 C106.464547,7.07366574 106.373275,7.15768 105.856067,7.25696959 C105.293223,7.36389684 105.141103,7.31807087 105.239981,7.05075275 C105.323647,6.8292606 105.186739,6.71469569 104.859681,6.74524633 C104.593471,6.76052165 104.289231,6.94382551 104.213171,7.13476702 C104.129505,7.37917216 103.817659,7.43263578 103.224391,7.31043321 C102.517032,7.17295532 102.395336,7.20350597 102.585486,7.50901239 C102.775637,7.82215647 102.73,7.82215647 102.3497,7.52428771 C101.961794,7.21114363 101.85531,7.25696959 101.5891,7.84506946 C101.414162,8.22695248 101.09471,8.60883551 100.874136,8.69284978 C100.547078,8.80741469 100.531866,8.76922639 100.79047,8.4560823 C101.05668,8.14293822 100.94259,8.08947459 100.022264,8.11238758 C99.4289957,8.1276629 98.9269996,8.22695248 98.9269996,8.34151739 C98.9269996,8.4560823 98.7292435,8.47135762 98.4858514,8.3797057 C98.1892174,8.27277845 98.1055514,8.31860441 98.2196414,8.50954593 C98.4554274,8.8837913 96.637593,9.4260652 95.8313568,9.22748602 C95.5119047,9.14347176 93.2072862,9.70865864 90.6744875,10.4724247 C76.4816881,14.7724276 58.5315236,21.2415261 41.4028074,28.2223479 C38.2463167,29.5131125 34.8312218,30.8649785 33.7968056,31.2392238 C31.0130089,32.2397574 25.5671116,34.5997945 25.5671116,34.813649 C25.5671116,34.9129386 25.3465375,35.0198658 25.0803274,35.0427788 C24.5783313,35.0809671 18.0371697,38.0749301 17.4134776,38.5561027 C17.2233275,38.7012182 16.4703333,39.0678259 15.7249451,39.3886077 C14.971951,39.7017518 11.3438881,41.5347903 7.62455316,43.4671184 C0.429275394,47.2172098 -0.3617488,47.8053097 0.109823316,49.1419003 C0.543365422,50.4097519 1.6918717,50.2875494 4.55172841,48.676003 C5.91320274,47.9122369 9.11532952,46.2548646 11.7013702,44.9717376 C14.2874108,43.6886106 16.3334253,42.5429615 16.2573653,42.4283966 C16.1813053,42.2985564 16.3562433,42.2680057 16.6528774,42.3443823 C16.9419054,42.4207589 17.6416576,42.2374551 18.2045018,41.9319487 C18.7673459,41.6340799 19.7941561,41.1452696 20.4939083,40.8321255 C22.9810709,39.7323024 24.0839412,39.2434921 26.2364397,38.2658716 C32.5189973,35.4322995 48.5448432,28.8791867 60.3569641,24.3195033 C69.8720724,20.6457886 75.4929078,18.6370839 85.5252243,15.2994262 C91.3742397,13.3518227 94.6143965,12.15271 94.6143965,11.9159425 L94.6143965,11.9159425 Z" id="Path"></path>
                </g>
            </g>
        </g>
    </g>
</svg>