<?xml version="1.0" encoding="UTF-8"?>
<svg width="108px" height="46px" viewBox="0 0 108 46" version="1.1" xmlns="http://www.w3.org/2000/svg" xmlns:xlink="http://www.w3.org/1999/xlink">
    <title>Group Copy 5</title>
    <g id="Page-1" stroke="none" stroke-width="1" fill="none" fill-rule="evenodd">
        <g id="Group-Copy-5">
            <g id="Group-10" transform="translate(64.892857, 0.000000)" fill="#0B59DE">
                <polygon id="Fill-1" points="1.84985253 3.5676644 15.0795344 23.0862352 0 46 11.6963032 46 27.2886326 22.9525092 13.9205605 3.5676644"></polygon>
                <polygon id="Fill-2" points="30.6514449 0 22.3423064 12.3913378 28.5952586 21.1106327 42.7142857 0"></polygon>
                <polyline id="Fill-3" points="28.4654506 24.7495694 40.5282914 42.4830792 38.1141498 42.4830792 28.4579411 42.4830792 22.3423064 33.5075364"></polyline>
            </g>
            <g id="CON-" transform="translate(0.000000, 10.678571)" fill="#0C2340" fill-rule="nonzero">
                <path d="M18.8688561,15.1182365 C18.7966209,16.675128 18.3735292,18.0502115 17.5995811,19.243487 C16.8256329,20.4367624 15.7395257,21.3611668 14.3412593,22.0167001 C12.942993,22.6722334 11.34608,23 9.55052025,23 C6.58887864,23 4.25671486,22.0423068 2.55402892,20.1269205 C0.851342972,18.2115342 0,15.5074594 0,12.0146961 L0,10.9084836 C0,8.7165442 0.384394251,6.79859719 1.15318275,5.15464262 C1.92197126,3.51068804 3.02871712,2.2405923 4.47342034,1.34435538 C5.91812357,0.448118459 7.58985159,0 9.4886044,0 C12.2232212,0 14.421234,0.714428858 16.0826427,2.14328657 C17.7440514,3.57214429 18.6882682,5.54130483 18.9152929,8.0507682 L13.4976558,8.0507682 C13.4563786,6.68848809 13.1106818,5.71030951 12.4605653,5.11623246 C11.8104489,4.52215542 10.8197952,4.2251169 9.4886044,4.2251169 C8.13677495,4.2251169 7.14612131,4.72700957 6.51664348,5.73079492 C5.88716564,6.73458027 5.55694776,8.33756402 5.52598984,10.5397462 L5.52598984,12.1222445 C5.52598984,14.5087954 5.82782962,16.2142062 6.43150918,17.238477 C7.03518874,18.2627477 8.0748591,18.7748831 9.55052025,18.7748831 C10.7991566,18.7748831 11.7536927,18.4829659 12.4141284,17.8991316 C13.0745642,17.3152973 13.4254207,16.3883322 13.4666979,15.1182365 L18.8688561,15.1182365 Z" id="Path"></path>
                <path d="M40.5239255,11.9686039 C40.5239255,14.1503006 40.1163128,16.081051 39.3010874,17.760855 C38.485862,19.4406591 37.3275196,20.7338009 35.8260602,21.6402806 C34.3246007,22.5467602 32.6141753,23 30.6947839,23 C28.7753925,23 27.0727065,22.5621242 25.5867261,21.6863727 C24.1007456,20.8106212 22.9424032,19.5584502 22.1116988,17.9298597 C21.2809945,16.3012692 20.8450037,14.4319751 20.8037264,12.3219773 L20.8037264,11.0621242 C20.8037264,8.87018481 21.2087593,6.93687375 22.0188251,5.26219105 C22.8288908,3.58750835 23.989813,2.29436651 25.5015918,1.38276553 C27.0133705,0.471164551 28.7341152,0.0153640615 30.663826,0.0153640615 C32.5728981,0.0153640615 34.275584,0.466043198 35.7718838,1.36740147 C37.2681836,2.26875974 38.4316856,3.55165887 39.26239,5.21609886 C40.0930943,6.88053886 40.5136062,8.78824315 40.5239255,10.9392118 L40.5239255,11.9686039 Z M34.9979356,11.0313961 C34.9979356,8.80872857 34.6238607,7.12124248 33.8757108,5.96893788 C33.1275609,4.81663327 32.0569326,4.24048096 30.663826,4.24048096 C27.9395284,4.24048096 26.4999849,6.26853707 26.3451952,10.3246493 L26.3297163,11.9686039 C26.3297163,14.1605433 26.6960517,15.8454687 27.4287227,17.0233801 C28.1613936,18.2012915 29.2500807,18.7902472 30.6947839,18.7902472 C32.0672519,18.7902472 33.1249811,18.2115342 33.8679713,17.0541082 C34.6109616,15.8966823 34.9876163,14.2322423 34.9979356,12.0607882 L34.9979356,11.0313961 Z" id="Shape"></path>
                <polygon id="Path" points="62.148037 22.6927188 56.7458788 22.6927188 48.7587339 8.77287909 48.7587339 22.6927188 43.3256178 22.6927188 43.3256178 0.322645291 48.7587339 0.322645291 56.7303999 14.242485 56.7303999 0.322645291 62.148037 0.322645291"></polygon>
                <polygon id="Path" points="73.1071429 14.6880428 64.9806872 14.6880428 64.9806872 11.6766867 73.1071429 11.6766867"></polygon>
            </g>
            <g id="2022-copy" transform="translate(36.142857, 36.142857)" fill="#0C2340" fill-rule="nonzero">
                <path d="M5.6421319,9.72536287 L0.160875451,9.72536287 L0.160875451,8.84902597 L3.05663357,5.1591864 C3.48563478,4.6013178 3.7815307,4.14777502 3.94432133,3.79855806 C4.10711197,3.4493411 4.18850728,3.08804431 4.18850728,2.71466769 C4.18850728,2.21390374 4.05635959,1.80318946 3.79206421,1.48252483 C3.52776882,1.1618602 3.17537498,1.00152788 2.73488267,1.00152788 C2.2062919,1.00152788 1.79548495,1.17394003 1.5024618,1.51876432 C1.20943866,1.86358862 1.06292709,2.34348739 1.06292709,2.95846066 L0,2.95846066 C0,2.07553476 0.248016321,1.36172651 0.744048962,0.817035905 C1.2400816,0.272345302 1.90369284,0 2.73488267,0 C3.51244735,0 4.1272214,0.233909473 4.57920481,0.701728419 C5.03118822,1.16954736 5.25717993,1.79220779 5.25717993,2.5697097 C5.25717993,3.51413293 4.73241952,4.63865546 3.68289872,5.94327731 L1.44213351,8.73042399 L5.6421319,8.73042399 L5.6421319,9.72536287 Z" id="Path"></path>
                <path d="M12.0139489,5.63359435 C12.0139489,7.06121085 11.8013635,8.12203972 11.3761926,8.81608098 C10.9510218,9.51012223 10.286453,9.85714286 9.38248614,9.85714286 C8.49001042,9.85714286 7.82927196,9.5178094 7.40027076,8.83914248 C6.97126955,8.16047555 6.74910822,7.14686784 6.73378675,5.79831933 L6.73378675,4.17083652 C6.73378675,2.76079068 6.94637216,1.7131398 7.371543,1.02788388 C7.79671383,0.34262796 8.46319785,0 9.37099504,0 C10.2711315,0 10.9337851,0.330548128 11.358956,0.991644385 C11.7841268,1.65274064 12.0024578,2.67293736 12.0139489,4.05223453 L12.0139489,5.63359435 Z M10.9510218,3.96657754 C10.9510218,2.93430099 10.8246196,2.18205691 10.5718154,1.7098453 C10.3190111,1.23763369 9.91873764,1.00152788 9.37099504,1.00152788 C8.8270828,1.00152788 8.43063972,1.23653552 8.18166581,1.7065508 C7.93269189,2.17656608 7.80437457,2.89915966 7.79671383,3.87433155 L7.79671383,5.82467532 C7.79671383,6.86134454 7.92790393,7.62676662 8.19028413,8.12094156 C8.45266434,8.6151165 8.850065,8.86220397 9.38248614,8.86220397 C9.90724654,8.86220397 10.2969865,8.62939267 10.5517059,8.16377005 C10.8064254,7.69814744 10.9395307,6.96457219 10.9510218,5.96304431 L10.9510218,3.96657754 Z" id="Shape"></path>
                <path d="M18.8569011,9.72536287 L13.3756447,9.72536287 L13.3756447,8.84902597 L16.2714028,5.1591864 C16.700404,4.6013178 16.9962999,4.14777502 17.1590905,3.79855806 C17.3218812,3.4493411 17.4032765,3.08804431 17.4032765,2.71466769 C17.4032765,2.21390374 17.2711288,1.80318946 17.0068334,1.48252483 C16.742538,1.1618602 16.3901442,1.00152788 15.9496519,1.00152788 C15.4210611,1.00152788 15.0102542,1.17394003 14.717231,1.51876432 C14.4242079,1.86358862 14.2776963,2.34348739 14.2776963,2.95846066 L13.2147692,2.95846066 C13.2147692,2.07553476 13.4627855,1.36172651 13.9588182,0.817035905 C14.4548508,0.272345302 15.1184621,0 15.9496519,0 C16.7272166,0 17.3419906,0.233909473 17.793974,0.701728419 C18.2459574,1.16954736 18.4719491,1.79220779 18.4719491,2.5697097 C18.4719491,3.51413293 17.9471887,4.63865546 16.8976679,5.94327731 L14.6569027,8.73042399 L18.8569011,8.73042399 L18.8569011,9.72536287 Z" id="Path"></path>
                <path d="M25.4642857,9.72536287 L19.9830293,9.72536287 L19.9830293,8.84902597 L22.8787874,5.1591864 C23.3077886,4.6013178 23.6036845,4.14777502 23.7664751,3.79855806 C23.9292658,3.4493411 24.0106611,3.08804431 24.0106611,2.71466769 C24.0106611,2.21390374 23.8785134,1.80318946 23.614218,1.48252483 C23.3499226,1.1618602 22.9975288,1.00152788 22.5570365,1.00152788 C22.0284457,1.00152788 21.6176388,1.17394003 21.3246156,1.51876432 C21.0315925,1.86358862 20.8850809,2.34348739 20.8850809,2.95846066 L19.8221538,2.95846066 C19.8221538,2.07553476 20.0701701,1.36172651 20.5662028,0.817035905 C21.0622354,0.272345302 21.7258467,0 22.5570365,0 C23.3346012,0 23.9493752,0.233909473 24.4013586,0.701728419 C24.853342,1.16954736 25.0793337,1.79220779 25.0793337,2.5697097 C25.0793337,3.51413293 24.5545733,4.63865546 23.5050525,5.94327731 L21.2642873,8.73042399 L25.4642857,8.73042399 L25.4642857,9.72536287 Z" id="Path"></path>
            </g>
        </g>
    </g>
</svg>