<?xml version="1.0" encoding="UTF-8"?>
<svg width="168px" height="31px" viewBox="0 0 168 31" version="1.1" xmlns="http://www.w3.org/2000/svg" xmlns:xlink="http://www.w3.org/1999/xlink">
    <title>Logo</title>
    <g id="Page-1" stroke="none" stroke-width="1" fill="none" fill-rule="evenodd">
        <g id="logo-copy-2" transform="translate(0.025316, 0.000000)">
            <g id="Group-10" transform="translate(138.164384, 0.000000)" fill="#0B59DE">
                <polygon id="Fill-1" points="1.52822692 2.39145463 10.4676299 15.4754193 0.278266607 30.8352986 8.18155325 30.8352986 18.7174163 15.3857782 9.68450186 2.39145463"></polygon>
                <polygon id="Fill-2" points="20.9896958 -7.26819629e-05 15.3751437 8.30626432 19.600314 14.1511055 29.1406548 -7.26819629e-05"></polygon>
                <polyline id="Fill-3" points="19.5126017 16.5904091 27.6635608 28.4777864 26.0323058 28.4777864 19.5075275 28.4777864 15.3751437 22.4611735"></polyline>
            </g>
            <g id="Group-9" transform="translate(0.000000, 7.380952)" fill="#182945">
                <polygon id="Fill-4" points="0 0.425336526 0 2.89932735 4.90554656 2.89932735 4.90554656 16.6147473 7.93225476 16.6147473 7.93225476 2.89932735 12.8378013 2.89932735 12.8378013 0.425336526"></polygon>
                <path d="M19.8919502,8.12829658 C20.4617717,8.12829658 20.9590046,8.05726716 21.3829228,7.91520832 C21.806357,7.77363104 22.1552669,7.57763799 22.4291684,7.32795152 C22.7028279,7.0777835 22.9075281,6.7809046 23.0425431,6.43779638 C23.1773162,6.09444738 23.2448237,5.71714873 23.2448237,5.30662276 C23.2448237,4.48557082 22.9730999,3.85497403 22.4291684,3.4148324 C21.8852368,2.97420922 21.0545797,2.7541384 19.9371972,2.7541384 L18.0019815,2.7541384 L18.0019815,8.12829658 L19.8919502,8.12829658 Z M27.6778177,16.6147473 L24.943884,16.6147473 C24.4263264,16.6147473 24.0510426,16.4134571 23.8187587,16.0103952 L20.3986195,10.8266922 C20.2708634,10.6323846 20.1300412,10.4941782 19.976637,10.4123138 C19.822507,10.3302086 19.5955462,10.2892764 19.2955128,10.2892764 L18.0019815,10.2892764 L18.0019815,16.6147473 L14.9752733,16.6147473 L14.9752733,0.425336526 L19.9371972,0.425336526 C21.03982,0.425336526 21.9863771,0.538983599 22.7780782,0.766759299 C23.5690534,0.994294222 24.2179967,1.31356545 24.724666,1.72409142 C25.2306095,2.13461739 25.6039576,2.62532234 25.8442263,3.19620625 C26.084253,3.76757173 26.2042664,4.39624229 26.2042664,5.08294028 C26.2042664,5.62782021 26.1234509,6.1428437 25.9623039,6.62825154 C25.800673,7.11293704 25.5681471,7.55356022 25.2647262,7.94915798 C24.9608214,8.34451495 24.5855376,8.69171639 24.1396009,8.99028074 C23.6929382,9.28884508 23.1848171,9.52408489 22.6149955,9.69575939 C22.8097753,9.80772101 22.9897953,9.94014875 23.1550557,10.0930426 C23.3200741,10.246418 23.4698488,10.4274828 23.6051058,10.6362371 L27.6778177,16.6147473 Z" id="Fill-5"></path>
                <path d="M38.040077,10.5017386 L36.0598564,5.11626392 C35.9621036,4.877894 35.8609633,4.59425787 35.7561935,4.26559631 C35.6511818,3.93717554 35.5456862,3.58275077 35.4409165,3.20184045 C35.3434056,3.58275077 35.2422653,3.93910176 35.1374956,4.2711342 C35.0319999,4.60316664 34.9308596,4.89234066 34.8335907,5.13889702 L32.8642584,10.5017386 L38.040077,10.5017386 Z M43.3845435,16.6148436 L41.0442827,16.6148436 C40.7815115,16.6148436 40.5678587,16.549352 40.4030822,16.4190913 C40.2380639,16.288349 40.1141791,16.1260649 40.0314279,15.931998 L38.8165345,12.6292504 L32.0769126,12.6292504 L30.8620192,15.931998 C30.8015286,16.1036725 30.6853866,16.2606596 30.5128674,16.4022369 C30.3403482,16.5442957 30.1266953,16.6148436 29.871425,16.6148436 L27.5091456,16.6148436 L33.910746,0.42519206 L36.9938314,0.42519206 L43.3845435,16.6148436 Z" id="Fill-7"></path>
                <path d="M57.718447,0.425288371 L51.1477149,16.6146991 L48.4137812,16.6146991 L41.8430491,0.425288371 L44.2730779,0.425288371 C44.5358492,0.425288371 44.74926,0.488853682 44.9142784,0.615743528 C45.0792968,0.742633374 45.2029396,0.906843763 45.2856908,1.10813392 L49.1227312,10.9833903 C49.2497615,11.3041062 49.3717105,11.6566048 49.4878525,12.0413675 C49.6042364,12.4256488 49.7148133,12.8267844 49.8200669,13.2447745 C49.910077,12.8267844 50.0073459,12.4256488 50.1125995,12.0413675 C50.2176112,11.6566048 50.3337532,11.3041062 50.4615094,10.9833903 L54.2755634,1.10813392 C54.335812,0.93645942 54.4538897,0.779953917 54.6300383,0.637895076 C54.805945,0.496317791 55.0217755,0.425288371 55.2770459,0.425288371 L57.718447,0.425288371 Z" id="Fill-9"></path>
                <polygon id="Fill-11" points="62.4438041 2.82131538 62.4438041 7.3108563 68.1369384 7.3108563 68.1369384 9.62834163 62.4438041 9.62834163 62.4438041 14.2079334 69.6673509 14.2079334 69.6673509 16.6147473 59.4059656 16.6147473 59.4059656 0.425336526 69.6673509 0.425336526 69.6673509 2.82131538"></polygon>
                <polygon id="Fill-13" points="81.8745255 14.1293917 81.8745255 16.6146991 72.3448347 16.6146991 72.3448347 0.425288371 75.3713009 0.425288371 75.3713009 14.1293917"></polygon>
                <path d="M96.8719384,8.49745695 L96.8719384,15.0473326 C96.0468464,15.6521662 95.1677969,16.094234 94.2335799,16.3740177 C93.2996049,16.654283 92.300058,16.793934 91.2354233,16.793934 C89.9075334,16.793934 88.7057059,16.5887914 87.629215,16.1782655 C86.5527241,15.7677395 85.6339927,15.1968556 84.8725369,14.4651321 C84.1113231,13.7338903 83.5243222,12.8605896 83.1117762,11.84523 C82.6992303,10.830352 82.4930783,9.72205231 82.4930783,8.52009005 C82.4930783,7.30344035 82.6917294,6.18743573 83.0895157,5.17207618 C83.48706,4.15743897 84.0513164,3.28413827 84.7827688,2.55241485 C85.5139793,1.82093221 86.4010137,1.25390073 87.4433879,0.850838871 C88.486004,0.447295452 89.6561344,0.246005298 90.953779,0.246005298 C91.6140945,0.246005298 92.2310987,0.298254058 92.8047917,0.402751578 C93.3784846,0.507489876 93.9112859,0.650993383 94.4027116,0.833984432 C94.8936534,1.01697548 95.3422518,1.23897252 95.7472969,1.49997554 C96.1521001,1.76121934 96.5232705,2.04870791 96.8610501,2.36244125 L95.9943406,3.72789156 C95.8595675,3.94483227 95.6834189,4.07701922 95.4656527,4.12541554 C95.2481284,4.17429341 95.0119731,4.12011843 94.7571866,3.96313137 C94.5094171,3.82155409 94.2618895,3.67949525 94.01412,3.53791796 C93.7665924,3.3960999 93.4909972,3.27282172 93.1870923,3.1683242 C92.8839134,3.06406745 92.5420205,2.97786904 92.1635912,2.91069206 C91.784678,2.84351508 91.3479358,2.81004699 90.8526387,2.81004699 C90.0502912,2.81004699 89.3244039,2.94464172 88.6754606,3.21310885 C88.0265174,3.48157598 87.4736332,3.86633874 87.0163242,4.36619324 C86.5582893,4.86652929 86.20575,5.46751042 85.9584644,6.16865507 C85.7109368,6.87028128 85.587052,7.65425346 85.587052,8.52009005 C85.587052,9.44563952 85.7203733,10.2722293 85.986532,11.0003411 C86.2524487,11.7277305 86.6277325,12.3433991 87.1116574,12.8473468 C87.5955822,13.3510537 88.1787117,13.7358165 88.8612878,14.0004312 C89.5436219,14.2657682 90.3048357,14.3979552 91.1451713,14.3979552 C91.7454801,14.3979552 92.2816689,14.3348714 92.7542215,14.2079816 C93.2270161,14.0808509 93.6881966,13.9094172 94.1380047,13.6924765 L94.1380047,10.7595634 L92.0902766,10.7595634 C91.8952548,10.7595634 91.7435444,10.7053884 91.6346613,10.5967977 C91.5260202,10.4889293 91.4718206,10.3565015 91.4718206,10.1992737 L91.4718206,8.49745695 L96.8719384,8.49745695 Z" id="Fill-15"></path>
                <path d="M108.202096,10.5017386 L106.221875,5.11626392 C106.124122,4.877894 106.022982,4.59425787 105.918212,4.26559631 C105.813201,3.93717554 105.708189,3.58275077 105.603419,3.20184045 C105.505424,3.58275077 105.404284,3.93910176 105.299514,4.2711342 C105.194019,4.60316664 105.092879,4.89234066 104.99561,5.13889702 L103.026277,10.5017386 L108.202096,10.5017386 Z M113.546562,16.6148436 L111.206302,16.6148436 C110.94353,16.6148436 110.729878,16.549352 110.565101,16.4190913 C110.400083,16.288349 110.276198,16.1260649 110.193447,15.931998 L108.978553,12.6292504 L102.238932,12.6292504 L101.024038,15.931998 C100.963547,16.1036725 100.847647,16.2606596 100.67537,16.4022369 C100.502367,16.5442957 100.288714,16.6148436 100.033928,16.6148436 L97.6711645,16.6148436 L104.073249,0.42519206 L107.15585,0.42519206 L113.546562,16.6148436 Z" id="Fill-17"></path>
                <polygon id="Fill-19" points="125.011396 2.89937551 120.106092 2.89937551 120.106092 16.6147954 117.079625 16.6147954 117.079625 2.89937551 112.173595 2.89937551 112.173595 0.425384682 125.011396 0.425384682"></polygon>
                <polygon id="Fill-21" points="130.186658 2.82131538 130.186658 7.3108563 135.879793 7.3108563 135.879793 9.62834163 130.186658 9.62834163 130.186658 14.2079334 137.410205 14.2079334 137.410205 16.6147473 127.14882 16.6147473 127.14882 0.425336526 137.410205 0.425336526 137.410205 2.82131538"></polygon>
            </g>
        </g>
    </g>
</svg>