<svg width="195" height="195" viewBox="0 0 195 195" fill="none" xmlns="http://www.w3.org/2000/svg">
<circle cx="97.5" cy="97.5" r="92.5" fill="white" stroke="#E3E0CB" stroke-width="10"/>
<path d="M116.381 159.054C90.5613 161.923 64.2573 149.783 50.2317 125.944C31.193 93.5803 41.9949 51.9087 74.3584 32.8699" stroke="#B8001F" stroke-width="17.28" stroke-miterlimit="10" stroke-linecap="round"/>
<path d="M78.1441 126.379C75.0824 124.517 73.5537 121.87 73.5537 118.435C73.5537 116.476 74.0772 114.883 75.131 113.655C76.1825 112.429 77.4725 111.817 79.0034 111.817C80.627 111.817 82.8758 112.603 85.7431 114.171C88.8026 115.642 91.5992 116.77 94.133 117.554C96.6645 118.34 99.8919 118.73 103.813 118.73C107.734 118.73 110.959 118.046 113.208 116.67C115.452 115.297 116.579 113.385 116.579 110.933C116.579 109.266 116.124 107.943 115.216 106.961C114.306 105.983 112.682 105.074 110.341 104.24C107.997 103.409 104.436 102.453 99.6556 101.372C91.1442 99.6067 85.0495 97.1053 81.3692 93.8697C77.6868 90.6341 75.8467 86.1728 75.8467 80.4834C75.8467 76.1693 77.0882 72.2699 79.5755 68.7896C82.0607 65.3093 85.478 62.6108 89.8298 60.6985C94.1794 58.7861 99.1276 57.83 104.674 57.83C108.69 57.83 112.563 58.3443 116.292 59.3752C120.021 60.4039 123.367 61.9016 126.332 63.8615C129.391 65.8237 130.922 68.4225 130.922 71.6581C130.922 73.6203 130.396 75.263 129.345 76.5862C128.291 77.9094 127.001 78.5733 125.472 78.5733C124.419 78.5733 123.394 78.3535 122.389 77.9117C121.384 77.4699 120.116 76.8083 118.589 75.9246C115.815 74.4541 113.427 73.3507 111.419 72.6143C109.411 71.8779 106.923 71.5108 103.961 71.5108C100.422 71.5108 97.6255 72.2472 95.5711 73.7177C93.5145 75.1882 92.4873 77.2002 92.4873 79.7493C92.4873 82.2983 93.5388 84.0656 95.6418 85.339C97.7448 86.6146 101.809 87.8903 107.833 89.1636C114.237 90.539 119.258 92.1046 122.892 93.872C126.524 95.637 129.131 97.8439 130.708 100.493C132.285 103.141 133.074 106.524 133.074 110.643C133.074 117.314 130.372 122.657 124.971 126.678C119.568 130.7 112.373 132.71 103.387 132.71C92.9644 132.71 84.5502 130.603 78.1463 126.384L78.1441 126.379Z" fill="#222424"/>
<path d="M139.195 151.015C119.48 165.072 92.556 167.13 70.3185 154.089C40.1284 136.387 30.0062 97.5625 47.7086 67.3743C65.411 37.1842 104.235 27.062 134.425 44.7644" stroke="#384B70" stroke-width="13.44" stroke-miterlimit="10" stroke-linecap="round"/>
</svg>
