<svg width="527" height="39" viewBox="0 0 527 39" fill="none" xmlns="http://www.w3.org/2000/svg">
<line x1="38" y1="18.5" x2="527" y2="18.5" stroke="#EFECDB"/>
<path d="M22.1529 35.8605C15.4289 36.6075 8.57893 33.446 4.92643 27.238C-0.0315695 18.81 2.78143 7.958 11.2094 3" stroke="#E2DDC6" stroke-width="4.5" stroke-miterlimit="10" stroke-linecap="round"/>
<path d="M12.4243 27.6437C11.627 27.1711 11.2289 26.4996 11.2289 25.628C11.2289 25.1307 11.3652 24.7265 11.6396 24.4149C11.9134 24.1039 12.2494 23.9487 12.6481 23.9487C13.0709 23.9487 13.6565 24.1481 14.4032 24.546C15.2 24.9191 15.9282 25.2054 16.5881 25.4044C17.2473 25.6038 18.0878 25.7027 19.1089 25.7027C20.13 25.7027 20.9699 25.5291 21.5555 25.1801C22.14 24.8317 22.4334 24.3465 22.4334 23.7244C22.4334 23.3013 22.3149 22.9655 22.0784 22.7166C21.8414 22.4682 21.4186 22.2377 20.8088 22.0261C20.1984 21.8151 19.2711 21.5725 18.0262 21.2983C15.8097 20.8504 14.2226 20.2157 13.2642 19.3947C12.3052 18.5737 11.826 17.4417 11.826 15.9981C11.826 14.9034 12.1493 13.914 12.7971 13.0309C13.4442 12.1478 14.3342 11.4631 15.4675 10.9779C16.6002 10.4926 17.8888 10.25 19.3332 10.25C20.3791 10.25 21.3875 10.3805 22.3586 10.6421C23.3296 10.9031 24.2012 11.2831 24.9732 11.7804C25.7699 12.2783 26.1686 12.9378 26.1686 13.7587C26.1686 14.2566 26.0317 14.6734 25.7578 15.0092C25.4834 15.345 25.1475 15.5134 24.7494 15.5134C24.475 15.5134 24.2081 15.4576 23.9463 15.3455C23.6846 15.2334 23.3544 15.0655 22.9569 14.8413C22.2343 14.4682 21.6125 14.1882 21.0895 14.0014C20.5666 13.8145 19.9189 13.7214 19.1474 13.7214C18.2259 13.7214 17.4976 13.9082 16.9626 14.2813C16.427 14.6545 16.1595 15.165 16.1595 15.8118C16.1595 16.4586 16.4333 16.907 16.981 17.2301C17.5286 17.5538 18.5871 17.8775 20.1559 18.2006C21.8236 18.5496 23.1312 18.9468 24.0775 19.3953C25.0232 19.8431 25.702 20.4031 26.1128 21.0752C26.5235 21.7473 26.7289 22.6056 26.7289 23.6508C26.7289 25.3434 26.0253 26.6991 24.6188 27.7196C23.2117 28.74 21.3381 29.25 18.9979 29.25C16.2838 29.25 14.0926 28.7153 12.4249 27.6448L12.4243 27.6437Z" fill="#E1DDC6"/>
<path d="M28.0939 33.7669C22.9599 37.4274 15.9484 37.9634 10.1574 34.5674C2.29536 29.9574 -0.340639 19.8469 4.26936 11.9854C8.87936 4.12336 18.9899 1.48736 26.8519 6.09736" stroke="#EFECDB" stroke-width="3.5" stroke-miterlimit="10" stroke-linecap="round"/>
</svg>
