<svg width="30" height="660" viewBox="0 0 30 660" fill="none" xmlns="http://www.w3.org/2000/svg">
<line x1="18.5" y1="-2.18557e-08" x2="18.5" y2="617" stroke="#EFECDB"/>
<path d="M22.1529 656.86C15.4289 657.607 8.57893 654.446 4.92643 648.238C-0.0315695 639.81 2.78143 628.958 11.2094 624" stroke="#E2DDC6" stroke-width="4.5" stroke-miterlimit="10" stroke-linecap="round"/>
<path d="M12.4243 648.644C11.627 648.171 11.2289 647.499 11.2289 646.628C11.2289 646.131 11.3652 645.726 11.6396 645.415C11.9134 645.104 12.2494 644.949 12.6481 644.949C13.0709 644.949 13.6565 645.148 14.4032 645.546C15.2 645.919 15.9282 646.205 16.5881 646.404C17.2473 646.604 18.0878 646.703 19.1089 646.703C20.13 646.703 20.9699 646.529 21.5555 646.18C22.14 645.832 22.4334 645.346 22.4334 644.724C22.4334 644.301 22.3149 643.965 22.0784 643.716C21.8414 643.468 21.4186 643.238 20.8088 643.026C20.1984 642.815 19.2711 642.572 18.0262 642.298C15.8097 641.85 14.2226 641.216 13.2642 640.395C12.3052 639.574 11.826 638.442 11.826 636.998C11.826 635.903 12.1493 634.914 12.7971 634.031C13.4442 633.148 14.3342 632.463 15.4675 631.978C16.6002 631.492 17.8888 631.25 19.3332 631.25C20.3791 631.25 21.3875 631.38 22.3586 631.642C23.3296 631.903 24.2012 632.283 24.9732 632.78C25.7699 633.278 26.1686 633.938 26.1686 634.759C26.1686 635.257 26.0317 635.673 25.7578 636.009C25.4834 636.345 25.1475 636.513 24.7494 636.513C24.475 636.513 24.2081 636.458 23.9463 636.345C23.6846 636.233 23.3544 636.065 22.9569 635.841C22.2343 635.468 21.6125 635.188 21.0895 635.001C20.5666 634.814 19.9189 634.721 19.1474 634.721C18.2259 634.721 17.4976 634.908 16.9626 635.281C16.427 635.654 16.1595 636.165 16.1595 636.812C16.1595 637.458 16.4333 637.907 16.981 638.23C17.5286 638.554 18.5871 638.877 20.1559 639.2C21.8236 639.549 23.1312 639.947 24.0775 640.395C25.0232 640.843 25.702 641.403 26.1128 642.075C26.5235 642.747 26.7289 643.606 26.7289 644.651C26.7289 646.343 26.0253 647.699 24.6188 648.719C23.2117 649.74 21.3381 650.25 18.9979 650.25C16.2838 650.25 14.0926 649.715 12.4249 648.645L12.4243 648.644Z" fill="#E1DDC6"/>
<path fill-rule="evenodd" clip-rule="evenodd" d="M25.9667 628.607C18.9384 624.486 9.90006 626.842 5.77896 633.871L5.77894 633.871C1.65785 640.898 4.01428 649.937 11.0425 654.058L11.0426 654.058C16.2171 657.092 22.485 656.617 27.0779 653.342C27.8649 652.781 28.9577 652.964 29.5187 653.751C30.0798 654.538 29.8967 655.631 29.1098 656.192C23.4347 660.238 15.6796 660.835 9.27216 657.077C0.576412 651.978 -2.33916 640.795 2.75973 632.1C7.85863 623.404 19.0413 620.489 27.737 625.588C28.5708 626.077 28.8503 627.149 28.3615 627.983C27.8726 628.816 26.8004 629.096 25.9667 628.607Z" fill="#EFECDB"/>
</svg>
