<svg width="832" height="39" viewBox="0 0 832 39" fill="none" xmlns="http://www.w3.org/2000/svg">
<line x1="32" y1="19.5" x2="832" y2="19.5" stroke="#373737"/>
<path d="M22.1529 35.8604C15.4289 36.6074 8.57893 33.4459 4.92643 27.2379C-0.0315695 18.8099 2.78143 7.95794 11.2094 2.99994" stroke="#373737" stroke-width="4.5" stroke-miterlimit="10" stroke-linecap="round"/>
<path d="M12.4243 27.6436C11.627 27.171 11.2289 26.4995 11.2289 25.6279C11.2289 25.1306 11.3652 24.7265 11.6396 24.4149C11.9134 24.1038 12.2494 23.9486 12.6481 23.9486C13.0709 23.9486 13.6565 24.1481 14.4032 24.5459C15.2 24.9191 15.9282 25.2054 16.5881 25.4043C17.2473 25.6038 18.0878 25.7027 19.1089 25.7027C20.13 25.7027 20.9699 25.529 21.5555 25.1801C22.14 24.8317 22.4334 24.3464 22.4334 23.7244C22.4334 23.3012 22.3149 22.9655 22.0784 22.7165C21.8414 22.4682 21.4186 22.2376 20.8088 22.0261C20.1984 21.8151 19.2711 21.5724 18.0262 21.2982C15.8097 20.8503 14.2226 20.2156 13.2642 19.3946C12.3052 18.5737 11.826 17.4416 11.826 15.998C11.826 14.9034 12.1493 13.9139 12.7971 13.0308C13.4442 12.1478 14.3342 11.463 15.4675 10.9778C16.6002 10.4926 17.8888 10.2499 19.3332 10.2499C20.3791 10.2499 21.3875 10.3804 22.3586 10.642C23.3296 10.903 24.2012 11.2831 24.9732 11.7804C25.7699 12.2783 26.1686 12.9377 26.1686 13.7587C26.1686 14.2566 26.0317 14.6734 25.7578 15.0091C25.4834 15.3449 25.1475 15.5133 24.7494 15.5133C24.475 15.5133 24.2081 15.4576 23.9463 15.3455C23.6846 15.2334 23.3544 15.0655 22.9569 14.8413C22.2343 14.4681 21.6125 14.1882 21.0895 14.0013C20.5666 13.8145 19.9189 13.7213 19.1474 13.7213C18.2259 13.7213 17.4976 13.9082 16.9626 14.2813C16.427 14.6544 16.1595 15.1649 16.1595 15.8117C16.1595 16.4585 16.4333 16.907 16.981 17.2301C17.5286 17.5537 18.5871 17.8774 20.1559 18.2005C21.8236 18.5495 23.1312 18.9468 24.0775 19.3952C25.0232 19.8431 25.702 20.4031 26.1128 21.0751C26.5235 21.7472 26.7289 22.6056 26.7289 23.6508C26.7289 25.3433 26.0253 26.699 24.6188 27.7195C23.2117 28.74 21.3381 29.2499 18.9979 29.2499C16.2838 29.2499 14.0926 28.7153 12.4249 27.6448L12.4243 27.6436Z" fill="#373737"/>
<path d="M28.0939 33.7669C22.9599 37.4274 15.9484 37.9634 10.1574 34.5674C2.29536 29.9574 -0.340639 19.8469 4.26936 11.9854C8.87936 4.12343 18.9899 1.48743 26.8519 6.09742" stroke="#373737" stroke-width="3.5" stroke-miterlimit="10" stroke-linecap="round"/>
</svg>
