<svg width="159" height="61" viewBox="0 0 159 61" fill="none" xmlns="http://www.w3.org/2000/svg">
<g clip-path="url(#clip0_59_37)">
<path d="M35.0785 56.1768C24.3201 57.372 13.3601 52.3136 7.5161 42.3808C-0.416701 28.896 4.0841 11.5328 17.5689 3.59998" stroke="#B8001F" stroke-width="7.2" stroke-miterlimit="10" stroke-linecap="round"/>
<path d="M17.7833 41.8984C16.6745 41.2408 16.1209 40.3064 16.1209 39.0936C16.1209 38.4016 16.3105 37.8392 16.6921 37.4056C17.0729 36.9728 17.5401 36.7568 18.0945 36.7568C18.6825 36.7568 19.4969 37.0344 20.5353 37.588C21.6433 38.1072 22.6561 38.5056 23.5737 38.7824C24.4905 39.06 25.6593 39.1976 27.0793 39.1976C28.4993 39.1976 29.6673 38.956 30.4817 38.4704C31.2945 37.9856 31.7025 37.3104 31.7025 36.4448C31.7025 35.856 31.5377 35.3888 31.2089 35.0424C30.8793 34.6968 30.2913 34.376 29.4433 34.0816C28.5945 33.788 27.3049 33.4504 25.5737 33.0688C22.4913 32.4456 20.2841 31.5624 18.9513 30.42C17.6177 29.2776 16.9513 27.7024 16.9513 25.6936C16.9513 24.1704 17.4009 22.7936 18.3017 21.5648C19.2017 20.336 20.4393 19.3832 22.0153 18.708C23.5905 18.0328 25.3825 17.6952 27.3913 17.6952C28.8457 17.6952 30.2481 17.8768 31.5985 18.2408C32.9489 18.604 34.1609 19.1328 35.2345 19.8248C36.3425 20.5176 36.8969 21.4352 36.8969 22.5776C36.8969 23.2704 36.7065 23.8504 36.3257 24.3176C35.9441 24.7848 35.4769 25.0192 34.9233 25.0192C34.5417 25.0192 34.1705 24.9416 33.8065 24.7856C33.4425 24.6296 32.9833 24.396 32.4305 24.084C31.4257 23.5648 30.5609 23.1752 29.8337 22.9152C29.1065 22.6552 28.2057 22.5256 27.1329 22.5256C25.8513 22.5256 24.8385 22.7856 24.0945 23.3048C23.3497 23.824 22.9777 24.5344 22.9777 25.4344C22.9777 26.3344 23.3585 26.9584 24.1201 27.408C24.8817 27.8584 26.3537 28.3088 28.5353 28.7584C30.8545 29.244 32.6729 29.7968 33.9889 30.4208C35.3041 31.044 36.2481 31.8232 36.8193 32.7584C37.3905 33.6936 37.6761 34.888 37.6761 36.3424C37.6761 38.6976 36.6977 40.584 34.7417 42.004C32.7849 43.424 30.1793 44.1336 26.9249 44.1336C23.1505 44.1336 20.1033 43.3896 17.7841 41.9L17.7833 41.8984Z" fill="#222424"/>
<path d="M59.1617 19.8217V42.5177H54.2865V33.3929H46.2161V42.5177H41.4073V19.8217H46.2161V29.0777H54.2865V19.8217H59.1617Z" fill="#222424"/>
<path d="M68.7801 37.148L66.7705 42.5168H61.6321L70.0649 19.8208H75.3025L83.7025 42.5168H78.6297L76.6201 37.148H68.7801ZM75.0713 32.9648L72.6665 25.0592L70.3609 32.9648H75.0713Z" fill="#222424"/>
<path d="M103.004 42.5177H97.2065L92.1337 34.6777H91.0465V42.5177H86.2041V19.8217H95.4937C100.632 19.8217 103.037 23.5441 103.037 27.2665C103.037 30.4617 101.259 33.6897 97.3713 34.4801L103.004 42.5177ZM91.0473 24.0713V30.4617H95.1321C97.0097 30.4617 97.9977 28.7161 97.9977 27.2665C97.9977 25.8169 97.1081 24.0713 95.2633 24.0713H91.0473Z" fill="#222424"/>
<path d="M107.187 19.8217H116.51C121.682 19.8217 123.987 23.5441 123.987 27.2665C123.987 30.9889 121.682 34.6777 116.51 34.6777H112.03V42.5177H107.187V19.8217ZM112.03 24.0713V30.4617H116.279C118.157 30.4617 119.145 28.7161 119.145 27.2665C119.145 25.8169 118.255 24.0713 116.411 24.0713H112.03Z" fill="#222424"/>
<path d="M138.184 35.8632C138.283 37.3128 139.37 38.5976 141.577 38.5976C143.554 38.5976 144.87 37.6752 144.904 36.1928C144.937 35.172 144.443 34.2824 142.17 33.6232L139.435 32.8656C134.428 31.2848 133.572 28.4184 133.572 26.3432C133.572 22.2912 137.031 19.5576 141.378 19.5576C145.726 19.5576 149.054 22.16 149.054 26.508H144.244C144.244 24.96 143.256 23.9384 141.313 23.9384C139.633 23.9384 138.382 24.8608 138.382 26.2112C138.382 26.804 138.579 27.8912 140.819 28.5168L143.52 29.3736C149.021 30.9544 149.845 34.084 149.746 36.2248C149.646 40.7048 145.628 42.8784 141.577 42.8784C136.669 42.8784 133.342 39.9464 133.342 35.8624H138.184V35.8632Z" fill="#222424"/>
<path d="M158.54 19.8217V42.5177H153.731V19.8217H158.54Z" fill="#222424"/>
<path d="M44.5841 52.8272C36.3697 58.684 25.1513 59.5416 15.8857 54.108C3.3065 46.732 -0.911102 30.5552 6.4649 17.9768C13.8409 5.39758 30.0177 1.17998 42.5969 8.55598" stroke="#384B70" stroke-width="5.6" stroke-miterlimit="10" stroke-linecap="round"/>
</g>
<defs>
<clipPath id="clip0_59_37">
<rect width="158.54" height="60.5392" fill="white"/>
</clipPath>
</defs>
</svg>
