<svg width="159" height="61" viewBox="0 0 159 61" fill="none" xmlns="http://www.w3.org/2000/svg">
<g clip-path="url(#clip0_60_250)">
<path d="M35.0785 56.1768C24.3201 57.372 13.3601 52.3136 7.51605 42.3808C-0.416746 28.896 4.08405 11.5328 17.5689 3.60002" stroke="#858585" stroke-width="7.2" stroke-miterlimit="10" stroke-linecap="round"/>
<path d="M17.7832 41.8984C16.6744 41.2408 16.1208 40.3064 16.1208 39.0936C16.1208 38.4016 16.3104 37.8392 16.692 37.4056C17.0728 36.9728 17.54 36.7568 18.0944 36.7568C18.6824 36.7568 19.4969 37.0344 20.5353 37.588C21.6433 38.1072 22.6561 38.5056 23.5737 38.7824C24.4905 39.06 25.6592 39.1976 27.0792 39.1976C28.4992 39.1976 29.6672 38.956 30.4816 38.4704C31.2944 37.9856 31.7024 37.3104 31.7024 36.4448C31.7024 35.856 31.5376 35.3888 31.2088 35.0424C30.8792 34.6968 30.2913 34.376 29.4433 34.0816C28.5945 33.788 27.3049 33.4504 25.5737 33.0688C22.4913 32.4456 20.284 31.5624 18.9512 30.42C17.6176 29.2776 16.9512 27.7024 16.9512 25.6936C16.9512 24.1704 17.4009 22.7936 18.3017 21.5648C19.2017 20.336 20.4393 19.3832 22.0153 18.708C23.5905 18.0328 25.3825 17.6952 27.3913 17.6952C28.8457 17.6952 30.2481 17.8768 31.5985 18.2408C32.9489 18.604 34.1608 19.1328 35.2344 19.8248C36.3424 20.5176 36.8969 21.4352 36.8969 22.5776C36.8969 23.2704 36.7065 23.8504 36.3257 24.3176C35.9441 24.7848 35.4769 25.0192 34.9233 25.0192C34.5417 25.0192 34.1704 24.9416 33.8064 24.7856C33.4424 24.6296 32.9833 24.396 32.4305 24.084C31.4257 23.5648 30.5609 23.1752 29.8337 22.9152C29.1065 22.6552 28.2057 22.5256 27.1329 22.5256C25.8513 22.5256 24.8384 22.7856 24.0944 23.3048C23.3496 23.824 22.9776 24.5344 22.9776 25.4344C22.9776 26.3344 23.3584 26.9584 24.12 27.408C24.8816 27.8584 26.3536 28.3088 28.5352 28.7584C30.8544 29.244 32.6728 29.7968 33.9888 30.4208C35.304 31.044 36.248 31.8232 36.8192 32.7584C37.3904 33.6936 37.676 34.888 37.676 36.3424C37.676 38.6976 36.6976 40.584 34.7416 42.004C32.7848 43.424 30.1792 44.1336 26.9248 44.1336C23.1504 44.1336 20.1033 43.3896 17.7841 41.9L17.7832 41.8984Z" fill="white"/>
<path d="M59.1617 19.8216V42.5176H54.2865V33.3928H46.2161V42.5176H41.4073V19.8216H46.2161V29.0776H54.2865V19.8216H59.1617Z" fill="white"/>
<path d="M68.7802 37.148L66.7706 42.5168H61.6322L70.065 19.8208H75.3026L83.7026 42.5168H78.6298L76.6202 37.148H68.7802ZM75.0714 32.9648L72.6666 25.0592L70.361 32.9648H75.0714Z" fill="white"/>
<path d="M103.004 42.5176H97.2065L92.1337 34.6776H91.0465V42.5176H86.2041V19.8216H95.4937C100.632 19.8216 103.037 23.544 103.037 27.2664C103.037 30.4616 101.258 33.6896 97.3713 34.48L103.004 42.5176ZM91.0473 24.0712V30.4616H95.1321C97.0097 30.4616 97.9977 28.716 97.9977 27.2664C97.9977 25.8168 97.1081 24.0712 95.2633 24.0712H91.0473Z" fill="white"/>
<path d="M107.187 19.8216H116.51C121.682 19.8216 123.987 23.544 123.987 27.2664C123.987 30.9888 121.682 34.6776 116.51 34.6776H112.03V42.5176H107.187V19.8216ZM112.03 24.0712V30.4616H116.279C118.157 30.4616 119.145 28.716 119.145 27.2664C119.145 25.8168 118.255 24.0712 116.411 24.0712H112.03Z" fill="white"/>
<path d="M138.184 35.8632C138.283 37.3128 139.37 38.5976 141.577 38.5976C143.554 38.5976 144.871 37.6752 144.904 36.1928C144.937 35.172 144.443 34.2824 142.17 33.6232L139.435 32.8656C134.428 31.2848 133.572 28.4184 133.572 26.3432C133.572 22.2912 137.031 19.5576 141.379 19.5576C145.726 19.5576 149.054 22.16 149.054 26.508H144.244C144.244 24.96 143.256 23.9384 141.313 23.9384C139.633 23.9384 138.382 24.8608 138.382 26.2112C138.382 26.804 138.579 27.8912 140.819 28.5168L143.52 29.3736C149.021 30.9544 149.845 34.084 149.746 36.2248C149.647 40.7048 145.628 42.8784 141.577 42.8784C136.669 42.8784 133.342 39.9464 133.342 35.8624H138.184V35.8632Z" fill="white"/>
<path d="M158.54 19.8216V42.5176H153.731V19.8216H158.54Z" fill="white"/>
<path d="M44.5841 52.8272C36.3697 58.684 25.1513 59.5416 15.8857 54.108C3.30651 46.732 -0.911087 30.5552 6.46491 17.9768C13.8409 5.39762 30.0177 1.18002 42.5969 8.55602" stroke="white" stroke-width="5.6" stroke-miterlimit="10" stroke-linecap="round"/>
</g>
<defs>
<clipPath id="clip0_60_250">
<rect width="158.54" height="60.5392" fill="white"/>
</clipPath>
</defs>
</svg>
