<svg width="57" height="95" viewBox="0 0 57 95" fill="none" xmlns="http://www.w3.org/2000/svg">
<path fill-rule="evenodd" clip-rule="evenodd" d="M28.4659 81.0557C28.4377 81.0559 28.4097 81.0563 28.3817 81.0566C28.3946 81.0794 28.4107 81.1082 28.4232 81.1307C28.4367 81.1078 28.4528 81.0786 28.4659 81.0557ZM34.6197 81.3173C33.7233 82.9147 32.9044 84.3633 32.2597 85.4773C31.5147 86.764 30.0819 87.8383 28.4232 87.8385C26.7652 87.8385 25.3327 86.764 24.5877 85.4773C23.9456 84.3678 23.1302 82.9248 22.2383 81.3355C17.5586 81.7543 13.4458 82.6309 10.5178 83.8334C7.58931 85.0361 6.00392 86.4998 6 88.0045C6.00039 89.8479 8.37094 91.6154 12.5905 92.9188C16.81 94.2221 22.5331 94.9542 28.5004 94.9542C34.4679 94.9542 40.1904 94.2219 44.4099 92.9188C48.6295 91.6154 51 89.8477 51 88.0045C51 86.491 49.3995 85.0188 46.443 83.8118C43.4865 82.6048 39.3351 81.729 34.6197 81.3173Z" fill="#222424"/>
<path fill-rule="evenodd" clip-rule="evenodd" d="M28.5005 0C12.7598 0 0 12.9961 0 29.0269C0.00246155 34.7987 1.69416 40.403 7.7942 51.1978C12.525 59.5712 21.8373 76.804 26.194 84.4178C27.4008 86.5276 29.5992 86.5273 30.8066 84.4175C35.1642 76.8037 44.475 59.5712 49.2058 51.1978C55.3058 40.403 56.9985 34.7987 57 29.0269C57 12.9961 44.2402 0 28.5005 0ZM28.5005 17.0877C35.618 17.0877 41.3895 22.9653 41.3895 30.2152C41.3895 33.6973 40.0316 37.0358 37.614 39.4974C35.1965 41.9592 31.9189 43.3427 28.5005 43.3427C21.382 43.3427 15.6112 37.4651 15.6112 30.2152C15.6112 22.9653 21.382 17.0877 28.5005 17.0877Z" fill="#B8001F"/>
</svg>
